<svg width="109.49599mm" height="26.139267mm" viewBox="0 0 109.49599 26.139267" xmlns="http://www.w3.org/2000/svg">
   <g transform="translate(3.3450345,-46.562603)">
      <g style="fill:#d73a31;fill-opacity:1" transform="matrix(0.24609164,0,0,0.24609164,-1.9660746,33.422192)">
         <g style="fill:#d73a31;fill-opacity:1" transform="translate(10.502048,-491.4456)">
            <path d="m 116.35347,565.16484 -23.29415,23.29414 42.27543,42.26702 h 46.57996 z" style="fill:#d73a31;fill-opacity:1;fill-rule:evenodd;stroke:none;stroke-width:0.725568px;stroke-linecap:butt;stroke-linejoin:miter;stroke-opacity:1" />
            <path transform="scale(0.26458333)" d="M 169.75391,2230.0137 15.919922,2383.8477 H 191.9707 l 65.82422,-65.8106 65.82422,65.8106 h 176.05078 l -153.83398,-153.834 -88.04102,-88.041 z" style="fill:#d73a31;fill-opacity:1;fill-rule:evenodd;stroke:none;stroke-width:2.74231px;stroke-linecap:butt;stroke-linejoin:miter;stroke-opacity:1" />
         </g>
      </g>
      <g transform="translate(-8.505907,35.324889)">
         <g aria-label="ADVENTUROUS" style="font-size:1.44479px;line-height:1.20721px;letter-spacing:0px;word-spacing:0px;fill:#08707a;stroke-width:0.0482883px">
            <path d="M 51.440113,16.331707 H 50.920918 L 47.917,22.821651 h 0.927135 l 0.862236,-1.919169 h 2.911204 l 0.862235,1.919169 h 0.927135 z m -0.27814,1.390702 1.056934,2.345652 h -2.113868 z" />
            <path d="m 55.380428,22.821651 h 1.984069 c 1.770828,0 3.115174,-1.344345 3.115174,-3.244972 0,-1.900627 -1.344346,-3.244972 -3.115174,-3.244972 h -1.984069 z m 2.011883,-5.655523 c 1.279447,0 2.160225,1.001306 2.160225,2.410551 0,1.409245 -0.880778,2.410551 -2.160225,2.410551 h -1.158918 v -4.821102 z" />
            <path d="m 63.474309,22.821651 h 0.593366 l 2.716506,-6.489944 h -0.927135 l -2.086054,4.960172 -2.086053,-4.960172 h -0.927135 z" />
            <path d="m 67.757671,22.821651 h 3.421128 V 21.977959 H 68.610635 V 19.734292 H 70.56689 V 18.89987 h -1.956255 v -1.724471 h 2.243667 v -0.843692 h -3.096631 z" />
            <path d="m 77.177355,22.821651 h 0.528467 v -6.489944 h -0.852965 v 4.617132 l -3.754896,-4.617132 h -0.528467 v 6.489944 h 0.852964 v -4.598589 z" />
            <path d="m 78.864737,17.175399 h 1.446331 v 5.646252 h 0.852964 v -5.646252 h 1.464873 v -0.843692 h -3.764168 z" />
            <path d="m 87.885755,16.331707 h -0.852964 v 3.244972 c 0,1.492687 -0.315226,2.456908 -1.427788,2.456908 -1.112562,0 -1.427788,-0.964221 -1.427788,-2.456908 v -3.244972 h -0.852964 v 3.578741 c 0,1.909898 0.695351,3.003917 2.280752,3.003917 1.529773,0 2.280752,-1.084748 2.280752,-3.115174 z" />
            <path d="m 92.984991,18.195248 c 0,-1.075477 -0.797336,-1.863541 -1.946984,-1.863541 h -1.761556 v 6.489944 h 0.852964 v -2.660877 h 0.992034 l 1.205276,2.660877 h 0.954949 L 91.974413,19.92899 c 0.166885,-0.09271 0.296684,-0.203969 0.435754,-0.333768 0.352311,-0.34304 0.574824,-0.82515 0.574824,-1.399974 z m -2.855576,-1.02912 h 0.908592 c 0.639723,0 1.019849,0.509924 1.019849,1.038391 0,0.54701 -0.435754,1.112562 -1.112562,1.112562 h -0.815879 z" />
            <path d="m 94.672369,19.576679 c 0,-1.353617 0.936407,-2.456908 2.160225,-2.456908 1.223818,0 2.104596,1.103291 2.104596,2.456908 0,1.353617 -0.880778,2.456908 -2.104596,2.456908 -1.223818,0 -2.160225,-1.131105 -2.160225,-2.456908 z m -0.927135,0 c 0,1.844999 1.288718,3.337686 3.059546,3.337686 1.770828,0 3.059545,-1.437059 3.059545,-3.337686 0,-1.900627 -1.288717,-3.337686 -3.059545,-3.337686 -1.770828,0 -3.059546,1.437059 -3.059546,3.337686 z" />
            <path d="m 105.12117,16.331707 h -0.85296 v 3.244972 c 0,1.492687 -0.31523,2.456908 -1.42779,2.456908 -1.11256,0 -1.42779,-0.964221 -1.42779,-2.456908 v -3.244972 h -0.85296 v 3.578741 c 0,1.909898 0.69535,3.003917 2.28075,3.003917 1.52977,0 2.28075,-1.084748 2.28075,-3.115174 z" />
            <path d="m 107.80985,17.119771 c 0.4543,-0.0093 0.7788,0.139071 1.06621,0.278141 l 0.38012,-0.75098 c -0.38012,-0.241055 -0.86223,-0.426482 -1.56686,-0.407939 -0.79733,0.03708 -1.52977,0.639723 -1.48341,1.557587 0.0464,0.96422 0.92713,1.566858 1.64103,2.188038 0.44502,0.389397 0.86223,0.760251 0.88078,1.16819 0.0278,0.482111 -0.34304,0.862236 -0.86224,0.880779 -0.54701,0.03708 -1.0662,-0.250327 -1.4556,-0.593367 l -0.50065,0.723166 c 0.53773,0.491381 1.16819,0.797336 1.98406,0.750979 1.04767,-0.04636 1.80792,-0.750979 1.76156,-1.844999 -0.0371,-0.880778 -0.69535,-1.353617 -1.27017,-1.863541 -0.5841,-0.519196 -1.21455,-0.96422 -1.25164,-1.51123 -0.009,-0.380125 0.34304,-0.556281 0.67681,-0.574824 z" />
         </g>
         <g aria-label="MACHINES" style="font-size:1.44469px;line-height:1.20712px;letter-spacing:0px;word-spacing:0px;fill:#08707a;stroke-width:0.048285px">
            <path d="m 71.450747,25.790148 -2.085912,4.959835 -2.085912,-4.959835 h -0.695304 l -1.112486,6.489504 h 0.927072 l 0.732386,-4.524111 1.909769,4.524111 h 0.593326 l 1.93758,-4.524111 0.741658,4.524111 h 0.927072 l -1.093945,-6.489504 z" />
            <path d="m 77.040977,25.790148 h -0.51916 l -3.003713,6.489504 h 0.927072 l 0.862177,-1.919039 h 2.911006 l 0.862177,1.919039 h 0.927072 z m -0.278121,1.390608 1.056862,2.345492 h -2.113724 z" />
            <path d="M 84.967422,26.253684 C 84.383367,25.81796 83.762228,25.68817 83.14109,25.697441 c -1.854144,0.01854 -3.003713,1.678 -2.985171,3.356 0.01854,1.983934 1.214464,3.337459 3.09642,3.318918 0.788011,-0.0093 1.390608,-0.241039 2.076641,-0.750928 l -0.472807,-0.704575 c -0.500619,0.370829 -0.991967,0.565514 -1.613105,0.574784 -1.307171,0.0093 -2.141536,-1.047591 -2.160078,-2.45674 -0.01854,-1.353525 0.89926,-2.44747 2.132266,-2.456741 0.454265,-0.0093 0.936343,0.157602 1.270089,0.352287 z" />
            <path d="m 89.287569,32.279652 h 0.852906 v -6.489504 h -0.852906 v 2.799757 H 87.23874 l 0.0093,-2.799757 h -0.852906 v 6.489504 h 0.852906 l -0.0093,-2.855382 h 2.048829 z" />
            <path d="M 91.762834,32.279652 H 92.61574 V 25.790148 H 91.762834 Z" />
            <path d="m 98.854917,32.279652 h 0.528431 v -6.489504 h -0.852906 v 4.616818 L 94.7758,25.790148 h -0.528431 v 6.489504 h 0.852906 v -4.598277 z" />
            <path d="m 101.23749,32.279652 h 3.42089 v -0.843636 h -2.56798 v -2.243514 h 1.95612 v -0.834365 h -1.95612 v -1.724354 h 2.24351 v -0.843635 h -3.09642 z" />
            <path d="m 107.34689,26.578159 c 0.45426,-0.0093 0.77874,0.139061 1.06613,0.278122 l 0.3801,-0.750929 c -0.3801,-0.241038 -0.86218,-0.426453 -1.56675,-0.407911 -0.79728,0.03708 -1.52967,0.639679 -1.48332,1.557481 0.0464,0.964154 0.92707,1.566751 1.64092,2.187889 0.44499,0.389371 0.86218,0.760199 0.88072,1.168111 0.0278,0.482078 -0.34302,0.862177 -0.86218,0.880718 -0.54697,0.03708 -1.06613,-0.250309 -1.4555,-0.593326 l -0.50062,0.723117 c 0.5377,0.491348 1.16811,0.797281 1.98393,0.750928 1.04759,-0.04635 1.80779,-0.750928 1.76144,-1.844873 -0.0371,-0.880719 -0.6953,-1.353525 -1.27009,-1.863415 -0.58405,-0.51916 -1.21446,-0.964155 -1.25155,-1.511127 -0.009,-0.3801 0.34302,-0.556243 0.67677,-0.574785 z" />
         </g>
      </g>
   </g>
</svg>
