<svg id="Layer_1" data-name="Layer 1" xmlns="http://www.w3.org/2000/svg" viewBox="0 0 238.46 87.29"><defs><style>.cls-1{fill:#14375d;}.cls-2{fill:#afc1ca;}</style></defs><path class="cls-1" d="M16.43,48,9.27,68.74H21.38l3.47-11.16A27.72,27.72,0,0,1,16.43,48Z" transform="translate(-9.27 -13.36)"/><path class="cls-1" d="M61.19,35.85h3.46l3.46-5.19c-7.79-9.52-18.28-17.3-29.42-17.3a22.5,22.5,0,1,0,12,41.53l-3.34-8.83a12.11,12.11,0,1,1-8.66-20.59c5.41,0,10.6,2.92,12.12,10.38l6.92,32.89H69.84Zm-1.63-7.07v.37H57.73A3.78,3.78,0,0,1,54.6,28a3.19,3.19,0,0,1-.54-2.55l.07-.3,5.45,3.63Z" transform="translate(-9.27 -13.36)"/><path class="cls-1" d="M94.38,50.33c15.72,0,15.33,18.41,15.33,18.41H122c0-8.57-4.11-16.94-8.11-20.09,4-2.77,6.58-6.88,6.58-13.65a15.34,15.34,0,0,0-15.34-15.34H80.58V29.94h24.07A5.05,5.05,0,0,1,109.71,35c0,2.79-2.26,6.13-5.06,6.13H80.58V68.74H91.31V50.33Z" transform="translate(-9.27 -13.36)"/><path class="cls-1" d="M152.65,35A15.34,15.34,0,0,1,168,19.66h24.53V29.94h-23A5.06,5.06,0,0,0,164.46,35v4.6h28.06v9.2H164.69V58h29.37V68.74H152.65Z" transform="translate(-9.27 -13.36)"/><rect class="cls-1" x="121.91" y="6.31" width="10.73" height="49.07"/><path class="cls-1" d="M232.39,68.74A15.34,15.34,0,0,0,247.73,53.4c0-8.47-6.87-14.33-15.34-14.33H218A4.08,4.08,0,0,1,213.88,35c0-2.26.75-5.09,4.09-5.09h25.16V19.66H218c-7.91,0-14.71,7.43-14.71,15.34s6.8,13.32,14.71,13.32l.62,0h13.8a5.06,5.06,0,1,1,0,10.12H203.26V68.74Z" transform="translate(-9.27 -13.36)"/><path class="cls-2" d="M96.43,84.31H78.88v16.33H96.43a4.82,4.82,0,0,0,4.81-4.81,4.75,4.75,0,0,0-1.36-3.35,4.77,4.77,0,0,0,1.36-3.35A4.82,4.82,0,0,0,96.43,84.31Zm0,13.4H81.81V94H96.43a1.88,1.88,0,0,1,0,3.76Zm0-6.7H81.81V87.24H96.43a1.89,1.89,0,0,1,0,3.77Z" transform="translate(-9.27 -13.36)"/><path class="cls-2" d="M238.43,91H225.7a1.89,1.89,0,0,1,0-3.77h15.41V84.31H225.7a4.82,4.82,0,1,0,0,9.64h12.73a1.88,1.88,0,0,1,0,3.76H220.5v2.93h17.93a4.82,4.82,0,1,0,0-9.63Z" transform="translate(-9.27 -13.36)"/><path class="cls-2" d="M27.1,84.31H9.55V99.18h2.93V94H27.1A1.88,1.88,0,0,1,29,95.83v3.35h2.93V95.83a4.79,4.79,0,0,0-1.36-3.35,4.82,4.82,0,0,0-3.45-8.17ZM12.48,91V87.24H27.1a1.89,1.89,0,0,1,0,3.77Z" transform="translate(-9.27 -13.36)"/><path class="cls-2" d="M59.67,84.31h-8a8.17,8.17,0,1,0,0,16.33h8a8.17,8.17,0,1,0,0-16.33Zm0,13.4h-8a5.24,5.24,0,0,1,0-10.47h8a5.24,5.24,0,0,1,0,10.47Z" transform="translate(-9.27 -13.36)"/><path class="cls-2" d="M129.26,84.31h-8a8.17,8.17,0,1,0,0,16.33h8a8.17,8.17,0,0,0,0-16.33Zm0,13.4h-8a5.24,5.24,0,1,1,0-10.47h8a5.24,5.24,0,0,1,0,10.47Z" transform="translate(-9.27 -13.36)"/><path class="cls-2" d="M191.21,92.48a8.18,8.18,0,0,0,8.17,8.16h12.06V97.71H199.38a5.24,5.24,0,0,1,0-10.47h12.06V84.31H199.38A8.18,8.18,0,0,0,191.21,92.48Z" transform="translate(-9.27 -13.36)"/><polygon class="cls-2" points="137.6 73.89 146.68 73.89 146.68 86.49 149.62 86.49 149.62 73.89 159.04 73.89 159.04 70.95 137.6 70.95 137.6 73.89"/><rect class="cls-2" x="168.67" y="71.08" width="2.94" height="15.41"/></svg>