<?xml version="1.0" encoding="UTF-8" standalone="no"?>
<!-- Generator: Adobe Illustrator 16.0.0, SVG Export Plug-In . SVG Version: 6.00 Build 0)  -->
<svg
   version="1.1"
   x="0px"
   y="0px"
   width="525"
   height="200"
   viewBox="0 0 525 200"
   enable-background="new 0 0 612 429"
   xml:space="preserve"
   id="svg894"
   xmlns="http://www.w3.org/2000/svg"
   xmlns:svg="http://www.w3.org/2000/svg"><defs
   id="defs898" />
<g
   id="Turn-Key_PCB_Assembly"
   transform="translate(-43.751997,-102.35389)">
	<text
   transform="translate(67.1602,268.8799)"
   font-family="Verdana"
   font-size="40px"
   id="text862">Turn-Key PCB Assembly</text>
</g>
<g
   id="BITTELE"
   transform="translate(-43.751997,-102.35389)">
	<g
   id="g891">
		<path
   fill="#183883"
   d="m 133.63,185.375 c 4.375,-4.5 4,-9.75 4,-9.75 1.125,-17.125 -14.5,-18.125 -14.5,-18.125 l -54,-0.125 -0.083,56.042 52.333,0.084 c 16.083,-1 16.25,-13.919 16.25,-13.919 1.083,-9.666 -4,-14.207 -4,-14.207 z m -6.692,12.063 c -0.375,6.5 -4.906,5.688 -4.906,5.688 l -42.375,0.063 0.031,-35.563 42.25,0.063 c 0,0 5.281,-0.438 4.875,6.688 0,0 0.823,5.583 -4.718,5.958 l -38.25,-0.021 -0.031,10.313 h 38.25 c -10e-4,-0.002 5.249,0.311 4.874,6.811 z"
   id="path865" />
		<g
   id="g871">
			<rect
   x="146.063"
   y="157.25"
   fill="#00923f"
   width="11"
   height="56.25"
   id="rect867" />
			<path
   fill="#00923f"
   d="m 151.563,127.781 c -7.214,0 -13.063,5.848 -13.063,13.063 0,7.215 5.848,13.063 13.063,13.063 7.215,0 13.063,-5.848 13.063,-13.063 0,-7.215 -5.849,-13.063 -13.063,-13.063 z m 0,18.938 c -3.245,0 -5.875,-2.63 -5.875,-5.875 0,-3.245 2.63,-5.875 5.875,-5.875 3.245,0 5.875,2.63 5.875,5.875 0,3.245 -2.631,5.875 -5.875,5.875 z"
   id="path869" />
		</g>
		<rect
   x="194.563"
   y="167.125"
   fill="#183883"
   width="10.875"
   height="46.375"
   id="rect873" />
		<rect
   x="167.25"
   y="157.25"
   fill="#183883"
   width="65.5"
   height="10.417"
   id="rect875" />
		<rect
   x="268.56299"
   y="167.125"
   fill="#183883"
   width="10.875"
   height="46.375"
   id="rect877" />
		<rect
   x="241.25"
   y="157.25"
   fill="#183883"
   width="65.5"
   height="10.417"
   id="rect879" />
		<path
   fill="#183883"
   d="m 380.791,157.458 v 10.208 h -50.583 c 0,0 -3.624,0.75 -4.416,3.875 l -0.042,8.708 55.063,0.063 v 10.25 l -55.063,0.125 v 8.875 c 0,0 0.563,3.646 4.188,3.625 3.625,-0.021 50.875,-0.063 50.875,-0.063 v 10.313 l -51.688,-0.063 c 0,0 -13.188,-1.25 -14.063,-14.438 L 315,172.813 c 0,0 -0.5,-12.938 15.125,-15.313 z"
   id="path881" />
		<g
   id="g887">
			<path
   fill="#00923f"
   d="m 399.5,141.063 h 10.75 L 410.313,199 c 0,0 -0.25,3.625 4.125,4.188 l 32.5,-0.063 0.938,10.375 h -31.938 c 0,0 -13.438,0.75 -16.375,-13.5 z"
   id="path883" />
			<path
   fill="#00923f"
   d="m 457.563,194.781 c -7.215,0 -13.063,5.848 -13.063,13.063 0,7.215 5.848,13.063 13.063,13.063 7.215,0 13.063,-5.848 13.063,-13.063 0,-7.215 -5.849,-13.063 -13.063,-13.063 z m 0,18.938 c -3.244,0 -5.875,-2.631 -5.875,-5.875 0,-3.244 2.631,-5.875 5.875,-5.875 3.244,0 5.875,2.631 5.875,5.875 0,3.244 -2.631,5.875 -5.875,5.875 z"
   id="path885" />
		</g>
		<path
   fill="#183883"
   d="m 542.791,157.458 v 10.208 h -50.583 c 0,0 -3.624,0.75 -4.416,3.875 l -0.042,8.708 55.063,0.063 v 10.25 l -55.063,0.125 v 8.875 c 0,0 0.563,3.646 4.188,3.625 3.625,-0.021 50.875,-0.063 50.875,-0.063 v 10.313 l -51.688,-0.063 c 0,0 -13.188,-1.25 -14.063,-14.438 L 477,172.813 c 0,0 -0.5,-12.938 15.125,-15.313 z"
   id="path889" />
8,15.125-15.313L542.791,157.458z"/>
	</g>
</g>
</svg>
