<?xml version="1.0" encoding="utf-8"?>
<!-- Generator: Adobe Illustrator 16.0.0, SVG Export Plug-In . SVG Version: 6.00 Build 0)  -->
<!DOCTYPE svg PUBLIC "-//W3C//DTD SVG 1.1//EN" "http://www.w3.org/Graphics/SVG/1.1/DTD/svg11.dtd">
<svg version="1.1" xmlns="http://www.w3.org/2000/svg" xmlns:xlink="http://www.w3.org/1999/xlink" x="0px" y="0px" width="612px"
	 height="429px" viewBox="0 0 612 429" enable-background="new 0 0 612 429" xml:space="preserve">
<g id="Turn-Key_PCB_Assembly">
	<text transform="matrix(1 0 0 1 67.1602 268.8799)" font-family="'Verdana'" font-size="40">Turn-Key PCB Assembly</text>
</g>
<g id="BITTELE">
	<g>
		<path fill="#183883" d="M133.63,185.375c4.375-4.5,4-9.75,4-9.75c1.125-17.125-14.5-18.125-14.5-18.125l-54-0.125l-0.083,56.042
			l52.333,0.084c16.083-1,16.25-13.919,16.25-13.919C138.713,189.916,133.63,185.375,133.63,185.375z M126.938,197.438
			c-0.375,6.5-4.906,5.688-4.906,5.688l-42.375,0.063l0.031-35.563l42.25,0.063c0,0,5.281-0.438,4.875,6.688
			c0,0,0.823,5.583-4.718,5.958l-38.25-0.021l-0.031,10.313h38.25C122.063,190.625,127.313,190.938,126.938,197.438z"/>
		<g>
			<rect x="146.063" y="157.25" fill="#00923F" width="11" height="56.25"/>
			<path fill="#00923F" d="M151.563,127.781c-7.214,0-13.063,5.848-13.063,13.063s5.848,13.063,13.063,13.063
				s13.063-5.848,13.063-13.063S158.777,127.781,151.563,127.781z M151.563,146.719c-3.245,0-5.875-2.63-5.875-5.875
				s2.63-5.875,5.875-5.875s5.875,2.63,5.875,5.875S154.807,146.719,151.563,146.719z"/>
		</g>
		<rect x="194.563" y="167.125" fill="#183883" width="10.875" height="46.375"/>
		<rect x="167.25" y="157.25" fill="#183883" width="65.5" height="10.417"/>
		<rect x="268.563" y="167.125" fill="#183883" width="10.875" height="46.375"/>
		<rect x="241.25" y="157.25" fill="#183883" width="65.5" height="10.417"/>
		<path fill="#183883" d="M380.791,157.458v10.208h-50.583c0,0-3.624,0.75-4.416,3.875l-0.042,8.708l55.063,0.063v10.25
			l-55.063,0.125v8.875c0,0,0.563,3.646,4.188,3.625s50.875-0.063,50.875-0.063v10.313l-51.688-0.063c0,0-13.188-1.25-14.063-14.438
			L315,172.813c0,0-0.5-12.938,15.125-15.313L380.791,157.458z"/>
		<g>
			<path fill="#00923F" d="M399.5,141.063h10.75L410.313,199c0,0-0.25,3.625,4.125,4.188l32.5-0.063l0.938,10.375h-31.938
				c0,0-13.438,0.75-16.375-13.5L399.5,141.063z"/>
			<path fill="#00923F" d="M457.563,194.781c-7.215,0-13.063,5.848-13.063,13.063s5.848,13.063,13.063,13.063
				s13.063-5.848,13.063-13.063S464.777,194.781,457.563,194.781z M457.563,213.719c-3.244,0-5.875-2.631-5.875-5.875
				s2.631-5.875,5.875-5.875s5.875,2.631,5.875,5.875S460.807,213.719,457.563,213.719z"/>
		</g>
		<path fill="#183883" d="M542.791,157.458v10.208h-50.583c0,0-3.624,0.75-4.416,3.875l-0.042,8.708l55.063,0.063v10.25
			l-55.063,0.125v8.875c0,0,0.563,3.646,4.188,3.625s50.875-0.063,50.875-0.063v10.313l-51.688-0.063c0,0-13.188-1.25-14.063-14.438
			L477,172.813c0,0-0.5-12.938,15.125-15.313L542.791,157.458z"/>
	</g>
</g>
</svg>
