<svg height="65.384mm" viewBox="0 0 173.52 65.384" width="173.52mm" xmlns="http://www.w3.org/2000/svg"><g transform="translate(-28.625 -3.5394)"><g fill="#faa"><g stroke-width=".10176"><ellipse cx="37.16" cy="34.225" rx=".013875" ry=".013302" stroke="#000"/><path d="m43.045 35.264c-1.5859-1.0169.05101-.07149-1.5594-1.0528-2.0429-1.1967-4.087-2.3919-6.1465-3.5622-1.3392-.78054-2.7559-1.4246-4.1175-2.1662-.72594-.41056-.14079-.85584-.822-1.246l-1.7744 1.2144.14452.35522c.29237.71863.33173.7008 1.0764 1.1031 1.377.7325 2.429 1.0614 3.8104 1.7861 2.083 1.1417 3.7683 1.7568 5.7957 2.9873 3.6999 2.1133 0 0 6.0703 3.7962z"/><path d="m28.625 28.451s2.3286.12083 3.4909.20552c.79528.06711 1.5899.14543 2.3871.18865.08594.007.17187.01397.25781.02094l1.7674-1.2058c-.08888-.0095-.17776-.01902-.26664-.02854-.81602-.02576-1.6306-.07738-2.4443-.14173-1.1397-.0808-2.2823-.12399-3.418-.25343z"/><path d="m36.528 27.66c-.20925-1.1012-.70972-4.0791-.90287-5.1836-.29418-1.591-.68788-3.1623-1.0101-4.7478-.14904-.82907-.08269-.42828-.20132-1.202l-1.8537.94239c.1464.76639.0667.36943.24085 1.1906.35368 1.5744.72606 3.1458 1.0246 4.731.18136 1.1241.82734 4.3426.93511 5.4753z"/><path d="m32.561 17.469c.76689.8434 2.6589 1.8697 3.4846 2.6592.91254.88654 1.947 1.6483 2.8692 2.5255.48945.42663.24821.22708.72142.60118l1.8036-1.0877c-.4832-.34951-.23796-.16076-.73279-.56974-.9423-.86049 0 0-3.6904-3.0545l-2.602-2.0163z"/><path d="m41.439 22.168c-.26924-1.1813-1.2735-4.57-1.4927-5.7605-.30606-1.5291-.50994-3.0739-.75605-4.6122-.18626-1.133-.33272-2.2709-.47326-3.4098-.09005-.6328-.03995-.32434-.1487-.92561l-1.8767.95781c.11634.58715.06374.2843.15534.90894.14972 1.1362.32125 2.2692.51055 3.4001.27743 1.529.48662 3.0691.79462 4.5933.19914 1.2111 1.3601 4.7148 1.4832 5.9356z"/><path d="m36.692 8.4173c.72892.71818 3.2126 3.4602 3.893 4.2199.92165.9902 1.9608 1.8708 2.998 2.7467.64762.52149.32433.26123.96987.7808l1.7712-1.0611c-.64528-.51864-.3223-.25961-.96895-.7771-1.041-.85793-2.0825-1.7263-2.9901-2.7167-.67066-.75693-3.1646-3.3631-3.7964-4.1503z"/><path d="m46.324 15.104c.71198-1.2078 2.4023-5.6189 2.9252-6.9087.47-1.2962 1.0334-2.5587 1.5241-3.8473.20825-.55228.11603-.28704.28044-.79448l-1.9368.87916c-.14593.48822-.0626.23075-.2546.77104-.46482 1.2786-.9856 2.5381-1.462 3.8128-.54024 1.31-2.0194 5.9746-2.8474 7.1485z"/><path d="m49.117 4.4323c.56551.78482 1.8908 3.3865 2.4874 4.1502.79965.98804 1.6856 1.9093 2.5596 2.8368.11227.1189.22455.2378.33682.35671l1.8088-1.0542c-.1161-.11616-.23219-.23232-.34829-.34849-.88628-.90834-1.7849-1.8129-2.5624-2.8104-.58222-.76215-1.8606-3.1853-2.3451-4.0097z"/><path d="m56.31 10.722c.98948-.84007 3.6155-3.3278 4.5514-4.2238.55423-.57952 1.1135-1.1545 1.6652-1.7362l-1.9406.78085c-.54428.5726-1.0817 1.1513-1.6372 1.714-.96576.9132-3.4218 3.6697-4.4477 4.5193z"/><path d="m60.586 5.5427c.34851 1.0162 1.9621 3.892 2.342 4.8975.34668.95163.69074 1.9052.97209 2.8768l1.8768-.98374c-.32222-.96052-.66628-1.9145-1.0189-2.8651-.38013-1.0088-2.007-3.6513-2.2314-4.7064z"/><path d="m65.776 12.333c.77114-.9284 3.0959-3.8159 3.8176-4.7802.83384-1.2182 1.6905-2.4195 2.6182-3.574l.37033-.43975-1.9297.79141c-.11852.14616-.23705.29232-.35557.43848-.90234 1.1628-1.7426 2.3652-2.5875 3.5668-.74653.9969-2.9623 4.0608-3.8102 4.9809z"/><path d="m70.653 4.3308c.2248.98937.16914 4.8882.3021 5.8918.09842.85611.21084 1.7106.30723 2.5669l1.8649-.93948c-.12833-.84661-.26124-1.6931-.3471-2.5449-.11611-1.0258-.07856-4.7403-.19744-5.7658z"/><path d="m81.562 8.307c-.87126 2.2432-1.5607 3.9144-2.3423 5.71-.21594.61176-.48861 1.2025-.74384 1.7995l1.9049-.84511c.23907-.59591.48541-1.1892.70812-1.7911.44118-1.1642 1.9479-4.7271 2.4427-5.8714z"/><path d="m78.476 15.817c1.1369.21473 8.1695 1.2489 9.3115 1.4377l1.9627-.77746.10006-.07933c.87132-.69079-8.3778-1.1404-9.4694-1.426z"/></g><path d="m74.322 33.84c.61164-.16292 6.3451-2.5072 6.9485-2.7278.91602-.3815 1.8207-.82098 2.734-1.2175.81641-.34725 1.6342-.68779 2.43-1.1329.58677-.3875 1.1965-.66776 1.8118-.92921.08651-.0354.17302-.07084.25954-.10625l1.0197-1.0947-.19686-.18924c-.07763-.07462.07504.11239-.01367.14954-.61845.26829-2.7851-.9367-2.4452.79077l-1.6039.8493-2.4639 1.0481-6.7069 2.7293z" stroke-width=".081135"/><g stroke-width=".10176"><path d="m81.63 24.648c.7055.43291 3.7797 1.46 4.4503 1.9409.53658.39673 1.0971.7622 1.6479 1.1403l1.7964-1.0977c-.56078-.36476-1.1305-.71877-1.6623-1.1224-.65934-.48173-3.946-2.1679-4.6104-2.6431z"/><path d="m54.206 35.407c2.9288 4.098-.87363-1.1802 2.0552 2.9178 1.1043 1.3796 2.2233 2.7478 3.3139 4.1375.68743.9505 1.4163 1.8636 2.2298 2.7174l.71578-2.328s-.4828-.45635-1.1816-1.3935c-1.0933-1.3909-2.2705-2.717-3.3535-4.1154-.92917-1.1927-2.9231-3.6597-3.8762-4.8346z"/><path d="m63.76 32.851c.0032 4.33.07212 3.1094.0032 4.33-.02557 1.3799-.09542 2.7579-.16929 4.136-.0165.51311.37805.20467.39144.71804l1.4877-.12918c-.0324-.49948-.0083-.99945.0023-1.4995.0341-1.3681.0732-2.7362.11106-4.1042.07069-1.2397-.03971.87562.05301-3.7066l-1.833-1.9906z"/><path d="m61.615 42.391c-.37813.61241-.80799 1.3386-.97547 2.0337-.05107.21198-.06232.43099-.09347.64649.01742.23033.01161.46336.05225.69098.16042.89846.69878 1.6297 1.4151 2.2067.17394.1401.36541.25889.54811.38834.20658.09904.40397.2181.61973.29711.87632.32087 1.8546.29236 2.7485.05707.19045-.05014.37343-.12345.56015-.18518 1.0209-.52309 1.4639-.7368 2.7131-1.5738.1456-.09755.23558-.25562.34012-.39331.30744-.40494.51398-.85344.71312-1.3125.22106-.72462.2203-1.5261-.14503-2.2121-.0759-.14253-.17694-.2714-.26541-.40711-.77209-.87676-1.8538-1.3319-2.9725-1.6594-.43148-.06694-.67129-.12897-1.1116-.09848-.27471.01902-.83659.12691-1.0884.25618-2.2826 1.1719-1.7625.65071-2.6281 1.6946l1.9399-.78466c.61975-.61238 2.4341-1.9085.60015-.79608-.15257.09254-2.187 1.19-2.0148 1.1383.40381-.12128 1.6058-.354 2.0267-.33266.17972.0091.35702.0439.53554.06585 1.085.27474 2.1385.69546 2.879 1.5384.0801.12632.17176.24653.24029.37895.33559.64836.31505 1.3958.07775 2.0673-.20202.442-.41122.87246-.73314 1.2496-.10871.12736-.5167.41215-.35463.35796.5088-.1701 3.603-1.9154 2.3011-1.1441-.18438.07041-1.7662.88071-1.9549.93965-.85589.26732-1.809.34573-2.6719.05805-.20794-.06932-.39888-.17878-.59832-.26817-.17826-.12215-.36519-.23344-.53478-.36645-.67612-.53029-1.2118-1.2251-1.3432-2.0719-.03354-.21621-.01689-.43687-.02534-.65531.04133-.20693.06577-.41763.12399-.62079.20228-.70591 2.1913-2.5949 2.686-3.1497l-3.6096 1.9665z"/><path d="m72.228 12.307c.70875-.26341 1.4043-.55578 2.099-.85142.78863-.35004 1.5721-.71054 2.3551-1.0719.6538-.27477 1.3061-.55416 1.9664-.81435.71798-.27113 1.4411-.52905 2.1528-.81528.44349-.18525.90039-.33716 1.3559-.4921.05313-.0168.10626-.03355.15939-.05035l1.215-.90281c-.05553.01664-.17062.01423-.22615.03084 0 0-.63233.12339-1.3432.27255-.7123.29599-1.3767.50661-2.1027.77-.7671.24456-1.2336.37199-1.8938.63526-.78999.36453-1.6376.59952-2.4311.95702-.66866.28327-2.0491.97565-2.7428 1.1995z"/><ellipse cx="86.015" cy="18.717" rx=".009811" ry=".009406" stroke="#000"/><ellipse cx="87.49" cy="18.3" rx=".013854" ry=".013282" stroke="#000"/><path d="m88.075 17.067c-.3234.40254-.65742.7973-.99046 1.1925-.32732.35582-.61705.74075-.92561 1.111-.10751.129-.37096.42911-.48226.55652-.39949.45428-.78494.91936-1.1939 1.3659-.29093.29431-.552.6137-.79779.9432-.17227.24605-.38599.46036-.58388.68661-.17252.18909-.33502.38569-.47037.60099-.10181.12516-.17531.26798-.27081.39699-.06723.10713-.1382.21215-.21203.31535-.0563.08681-.13826.13924-.22332.1959-.03363.04816-.10012.05286-.1415.08908-.02423.0212-.04123.04894-.06208.07323-.07777.0607.16016-.23834-.09094.0535.18902-.2186.09911-.06518.09094-.0535l1.218-.33417.02687-.02779c.0519-.07853.12277-.1422.19243-.20635.06946-.05085.14801-.08848.21102-.14851.08029-.06837.14255-.1512.19928-.2385.0687-.10513.14038-.20837.20839-.31392.08329-.13185.16686-.26348.25436-.39286.14141-.20507.30445-.3948.47291-.57995.1974-.22247.39239-.44722.56262-.68995.24318-.32038.50096-.62932.77943-.92238.39095-.44523-.38933.44652 0 0 .47622-.55179-.77943.92238 2.4502-2.4289.35741-.41271 1.0613-1.4516 1.4532-1.8348l-1.6747.5907z"/></g><g stroke="#000"><ellipse cx="86.704" cy="19.376" rx=".013854" ry=".013282" stroke-width=".10176"/><g stroke-width=".26458"><circle cx="185.86" cy="203.3" r=".070541"/><circle cx="128.1" cy="268.79" r=".14108"/><circle cx="106.94" cy="260.21" r=".14108"/><circle cx="125.24" cy="283.08" r=".14108"/></g><g stroke-width=".10176"><ellipse cx="69.062" cy="21.903" rx=".009797" ry=".009392"/><ellipse cx="69.737" cy="24.149" rx=".009797" ry=".009392"/></g></g><g stroke-width=".10176"><path d="m61.28 19.274c.08882-.3808.17031-.76512.30897-1.133.0445-.11807.09696-.23325.14545-.34987.0576-.12168.10857-.24645.17279-.36505.13069-.24138.31374-.51216.48782-.72626.09414-.11577.40932-.43614.29916-.33418-1.5646 1.4482-1.3537 1.2611-.64851.73347.54434-.3469 1.1312-.64283 1.7823-.74767.29443-.0474.49607-.04072.79125-.04578.77335.023 1.5286.24463 2.2166.57878.13632.06621.26623.14393.39934.21589.64035.41496 1.111.99434 1.4373 1.6613.06243.12764.11322.26024.16983.39035.33095.78851.51591 1.618.6225 2.4587.07605.81332.02565 1.6283-.01976 2.4414-.03217.75192-.21138 1.459-.49045 2.1587-.26275.6331-1.4466 1.5002-1.9333 1.9873-.07597.07162.44166-.04864.51621-.12162 2.1825-2.1369 1.5591-1.4239 1.009-1.0279-.2571.18508-.53182.33764-.81342.48477-.61249.30036-1.2932.30435-1.9624.2588-.73434-.06397-1.4432-.25358-2.1364-.48589-.41686-.1617-.85748-.28161-1.2409-.51348-.23772-.14376-.26628-.18792-.47263-.37415-.39261-.43442-.66573-.95477-.8333-1.5055-.03912-.12864-.0671-.26016-.10064-.39024l-1.0337 1.2018s.189.55945.23102.69508c.18.58089.2569.59301.67302 1.0508.0821.07741.82193.67641.82193.67641.49036.42108.50865.39965 1.041.59349.70536.23539 1.04.31056 1.7874.38155.47683.04368 1.0549.09895 1.5307.02994.11293-.01638.18458-.01793.29462-.04723.10027-.0267.18043-.09804.27766-.1336.28929-.13919.3349-.11236.60336-.28677.08588-.05579.24533-.12222.32056-.19071.57844-.52667 1.141-1.0692 1.7087-1.6064.07421-.07023.14466-.14403.21699-.21604.46987-.50754.89116-1.0556 1.1256-1.7038.04296-.11802.09051-.2346.12887-.35406.19201-.59794.28924-1.2233.31616-1.8472.03449-.82149.07525-1.6469-.0068-2.467-.1316-.84989-.33541-1.689-.6696-2.4887-.06019-.13519-.11373-.27329-.18056-.40558-.3509-.69456-.87381-1.2816-1.5256-1.7333-.13823-.07633-.27226-.16013-.41469-.229-.44183-.21362-.92485-.37174-1.3991-.50298-.15467-.0428-.30878-.0897-.46711-.11756-.1313-.02312-.26588-.02323-.39882-.03484-.43667.0043-.87048.01092-1.296.12163-.50487.13139-.96283.38235-1.4097.63482-1.0864.71958-.51706.30531-2.22 1.9959-.1075.10673-.19764.22864-.28821.34894-.26513.35216-.48159.73606-.64936 1.1392-.20688.51534-.36695 1.0428-.5359 1.5702l1.711-1.3238z"/><path d="m60.465 17.929c-.16026-.2835-.33515-.55863-.50448-.83724-.24919-.46343-.59031-.86402-.98657-1.2177-.36079-.30994-.76404-.58916-1.2046-.78711-.09278-.04169-.19039-.07271-.28558-.10908-.56402-.20687-1.1622-.25838-1.7602-.27342-.86161.01258-1.6668.33698-2.4467.65684-.53111.24115-1.0389.53732-1.4886.9018-.10196.08265-.20029.16952-.29528.25948-.57578.5453-1.1445 1.0974-1.7168 1.6461-.53446.56364-.88575 1.2461-1.2153 1.9313-.35716.85083-.43647 1.7708-.47635 2.6779.0051.56254.01639 1.1312.10909 1.6882.06386.38372.10976.51368.21313.89394.19404.62798.4196 1.2592.75784 1.8316.26969.45643.39459.58237.73298 1.0091.65088.6526 1.3475 1.2723 2.1064 1.8092.34981.24748.53729.35042.89734.5649.49811.2498 1.0181.4651 1.5841.51226.3364.02802.44014.0039.77252-.02681.62347-.08957 1.1957-.33258 1.7444-.61892.92254-.53194 1.1008-.67894 1.747-1.4913 1.1232-1.4119 1.6599-2.4844 1.9174-2.8561.18304-.60498.2351-.94833.31992-1.571l-1.0197 1.1345-.4629 1.3632c-.33696.71338-.49139.88836-.77219 1.1576-.43915.65289-.79442.88694-.87473 1.0324-.06312.11434-.32014.4114-.21769.32721.4548-.37376 1.1077-.73735 1.5378-1.1371.06525-.06064 1.1008-1.8544 1.1546-1.9246 1.4049-1.8337-1.8944 2.1028-2.0391 2.3549-.16246.39574 1.5478-.94212.43915-.65289-.36444.44819-1.9416 1.5001-2.8737 1.4076-.54322-.05391-1.0612-.21254-1.5496-.43198-.14449-.07498-.29208-.14472-.43348-.22494-.72616-.41201-1.4652-.95343-2.0604-1.5252-.17373-.1669-.33005-.34968-.49507-.52452-.12638-.17353-.26113-.34174-.37914-.5206-.46765-.7088-.7779-1.5032-1.0102-2.3078-.03598-.15154-.07676-.3021-.10795-.45462-.14048-.68691-.16766-1.3927-.17013-2.0907.04177-.89954.14498-1.8042.54565-2.6312.33702-.67844.71416-1.3427 1.2681-1.8843-.39937.38063-.79837.76162-1.1981 1.1419-.09485.09023.18496-.18518.28345-.27174.43334-.38086.93107-.69401 1.4552-.9466.74453-.32494 1.5134-.64114 2.3431-.67227.58823.0046 1.1382.05102 1.7011.22976.08849.03178.17893.05898.26547.09536.43033.18089.80984.45693 1.163.74941.37901.34515.69997.73479.92474 1.1905.16447.28216 1.8746 3.317 1.1651 2.0914l1.711-1.3238z"/><ellipse cx="68.824" cy="33.629" rx=".019593" ry=".018784" stroke="#000"/><g fill-rule="evenodd"><path d="m54.848 23.519a1.7473 1.4848 0 0 1 2.4301.04173 1.7473 1.4848 0 0 1 .02976 2.0653 1.7473 1.4848 0 0 1 -2.4282.09228 1.7473 1.4848 0 0 1 -.18732-2.0593"/><path d="m62.734 23.116a1.5525 1.3998 0 0 1 2.1592.03933 1.5525 1.3998 0 0 1 .02645 1.9471 1.5525 1.3998 0 0 1 -2.1574.08702 1.5525 1.3998 0 0 1 -.16645-1.9415"/></g></g></g><g fill="#faa" stroke-width="1.2233" transform="scale(.75641 1.322)"><path d="m141.21 38.513q0 2.0787-1.6247 3.5362-1.6008 1.4575-3.9901 1.4575-2.4132 0-4.0379-1.4575-1.6008-1.4575-1.6008-3.5362v-5.5193h3.9185v7.6697q0 1.9592 1.7203 1.9592 1.6964 0 1.6964-1.9592v-5.9494q0-2.4371-1.1708-4.2769l-4.8981-7.6219q-1.2663-1.9831-1.2663-4.3963v-4.6591q0-2.0787 1.6008-3.5362 1.6247-1.4575 4.0379-1.4575 2.3893 0 3.9901 1.4575 1.6247 1.4575 1.6247 3.5362v5.5193h-3.9185v-7.6697q0-1.9592-1.6964-1.9592-1.7203 0-1.7203 1.9592v5.7343q0 2.4132 1.1708 4.253l4.8981 7.6219q1.2663 1.9831 1.2663 4.4202zm-1.9592-20.094v-5.4476q0-1.9592-1.7442-3.0822.76458.90794.76458 2.4132v6.1166zm0 20.883v-5.137q0-2.461-1.2186-4.3485l-4.8981-7.598q-1.2186-1.8876-1.2186-4.3485v-5.0414q0-1.4097.64512-2.3415-1.6247 1.0991-1.6247 2.9388v4.683q0 2.461 1.2186 4.3724l4.8981 7.5741q1.2186 1.8876 1.2186 4.3485v5.591q0 1.4814-.76458 2.3893 1.7442-1.123 1.7442-3.0822zm-6.6901 2.5088q-.64512-.93183-.64512-2.3654v-5.5671h-.97961v4.9937q0 1.8159 1.6247 2.9388z"/><path d="m154.78 45.37q0 2.1026-1.4814 3.5362-1.4814 1.4575-3.8468 1.4575-2.2221 0-3.8707-1.4814-1.6247-1.4575-1.6247-3.5123v-.88404h3.8229v3.0344q0 1.9592 1.6725 1.9592 1.5053 0 1.5053-1.9592v-5.4237q-1.0752.93183-2.8194.93183-4.1813 0-4.1813-4.5158v-19.807h-1.2186v-.88404h5.0414v22.364q0 1.8637 1.4336 1.8637.90794 0 1.7442-.83626v-22.507h-1.2186v-.88404h5.0414zm-1.9114.78847v-27.453h-.97961v28.146q0 1.5769-.74069 2.4371 1.7203-1.0991 1.7203-3.13zm-6.0688-4.014q-.93182-.93183-.93182-2.6043v-20.835h-.97962v20.309q0 2.6043 1.9114 3.13zm-.28671 6.5945q-.64511-.90794-.64511-2.4371v-.93183h-.97962v.3345q0 1.9353 1.6247 3.0344z"/><path d="m167.99 38.513q0 2.1265-1.4097 3.5362-1.5053 1.4575-3.8707 1.4575-2.3654 0-3.8707-1.4336-1.5053-1.4575-1.5053-3.5601v-3.0344h3.8229v5.1848q0 1.9592 1.553 1.9592 1.4814 0 1.4814-1.9592v-3.7512q0-2.3654-1.338-3.6795l-4.014-3.9662q-1.5053-1.4814-1.5053-4.3485v-2.3415q0-2.1265 1.4575-3.5601 1.4575-1.4336 3.8229-1.4336 2.3654 0 3.8229 1.4336 1.4575 1.4336 1.4575 3.5601v3.0344h-3.799v-5.1848q0-1.9592-1.4814-1.9592-1.4575 0-1.4575 1.9592v3.3689q0 2.3654 1.3141 3.6556l4.014 3.9662q1.5053 1.5053 1.5053 4.3724zm-1.9831-13.786v-2.9388q0-2.007-1.7681-3.13.78847.90794.78847 2.4371v3.6317zm.0956 14.575v-2.8911q0-2.676-1.3858-4.0618l-4.2052-4.2052q-1.2663-1.2663-1.2663-3.9185v-2.5805q0-1.5292.64511-2.461-1.6247 1.123-1.6247 3.0344v2.3654q0 2.676 1.3619 4.0618l4.2052 4.2052q1.2902 1.2663 1.2902 3.9185v3.2256q0 1.5292-.78847 2.4371 1.7681-1.123 1.7681-3.13zm-6.2122 2.6043q-.64511-.93183-.64511-2.461v-3.0822h-.97961v2.5088q0 1.9114 1.6247 3.0344z"/><path d="m177.38 43.268h-1.2186q-2.3893 0-3.9662-1.4575-1.553-1.4575-1.553-3.5362v-19.568h-1.2424v-.88404h1.2424v-7.0962l3.799-1.7203v8.8165h2.7477v.88404h-2.7477v21.719q0 1.9592 1.7203 1.9592h1.2186zm-4.2052-1.6247q-.64511-.90794-.64511-2.4371v-28.337l-.97962.45397v27.286q0 1.9353 1.6247 3.0344z"/><path d="m190.17 38.513q0 2.1026-1.5769 3.5601-1.553 1.4336-3.9424 1.4336-2.3893 0-3.9662-1.4336-1.5769-1.4575-1.5769-3.5601v-15.937q0-2.1026 1.5769-3.5362 1.577-1.4575 3.9662-1.4575 2.3893 0 3.9424 1.4575 1.5769 1.4336 1.5769 3.5362v8.3626h-7.2396v9.7245q0 1.9592 1.7203 1.9592 1.6964 0 1.6964-1.9592v-5.1848h3.8229zm-1.9114-8.4581v-8.267q0-2.007-1.7681-3.13.78847.83626.78847 2.4371v8.9599zm-1.9114 0v-9.6289q0-1.9592-1.6964-1.9592-1.7203 0-1.7203 1.9592v9.6289zm-4.683 11.851q-.64511-.93183-.64511-2.461v-17.8q0-1.5292.64511-2.461-1.6247 1.123-1.6247 3.0344v16.653q0 1.9114 1.6247 3.0344zm6.5945-2.6043v-2.9388h-.97962v3.6317q0 1.6008-.78847 2.4371 1.7681-1.123 1.7681-3.13z"/><path d="m212.12 43.268h-5.0414v-22.842q0-1.8637-1.4097-1.8637-1.0991 0-2.1982 1.1708.43007.95572.43007 2.3415v20.309h1.2186v.88404h-5.0176v-22.842q0-1.8637-1.4336-1.8637-.93183 0-1.7681.83626v22.985h1.2424v.88404h-6.2839v-.88404h1.2424v-23.678h-1.2424v-.88404h5.0414v.6929q1.0752-.93183 2.8433-.93183 2.3654 0 3.3928 1.4575 1.4575-1.4575 3.6079-1.4575 4.1574 0 4.1574 4.4919v20.309h1.2186zm-3.13-.88404v-21.145q0-2.0548-1.6486-2.7238.66901.66901.66901 2.2937v21.575zm-7.0007 0v-21.145q0-2.0548-1.6486-2.7238.66901.66901.66901 2.2937v21.575zm-6.9768 0v-23.678h-.97961v23.678z"/><path d="m224.67 38.513q0 2.1026-1.577 3.5601-1.553 1.4336-3.9424 1.4336t-3.9662-1.4336q-1.5769-1.4575-1.5769-3.5601v-15.937q0-2.1026 1.5769-3.5362 1.5769-1.4575 3.9662-1.4575t3.9424 1.4575q1.577 1.4336 1.577 3.5362v8.3626h-7.2396v9.7245q0 1.9592 1.7203 1.9592 1.6964 0 1.6964-1.9592v-5.1848h3.8229zm-1.9114-8.4581v-8.267q0-2.007-1.7681-3.13.78847.83626.78847 2.4371v8.9599zm-1.9114 0v-9.6289q0-1.9592-1.6964-1.9592-1.7203 0-1.7203 1.9592v9.6289zm-4.683 11.851q-.64512-.93183-.64512-2.461v-17.8q0-1.5292.64512-2.461-1.6247 1.123-1.6247 3.0344v16.653q0 1.9114 1.6247 3.0344zm6.5945-2.6043v-2.9388h-.97961v3.6317q0 1.6008-.78847 2.4371 1.7681-1.123 1.7681-3.13z"/><path d="m234.25 43.268h-1.2185q-2.3893 0-3.9662-1.4575-1.553-1.4575-1.553-3.5362v-19.568h-1.2424v-.88404h1.2424v-7.0962l3.799-1.7203v8.8165h2.7477v.88404h-2.7477v21.719q0 1.9592 1.7203 1.9592h1.2185zm-4.2052-1.6247q-.64512-.90794-.64512-2.4371v-28.337l-.97961.45397v27.286q0 1.9353 1.6247 3.0344z"/><path d="m246.79 25.611h-3.8229v-5.1848q0-1.8637-1.1708-1.8637-.76458 0-1.5292.83626v22.985h1.2424v.88404h-6.2839v-.88404h1.2424v-23.678h-1.2424v-.88404h5.0414v.6929q1.0752-.93183 2.6999-.93183 3.8229 0 3.8229 4.4919zm-1.9114-.88404v-3.4884q0-2.0548-1.5769-2.676.59732.57343.59732 2.2459v3.9185zm-6.4989 17.657v-23.678h-.97961v23.678z"/><path d="m253.22 14.883h-3.8229v-5.8777h3.8229zm1.2186 28.385h-6.26v-.88404h1.2186v-23.678h-1.2186v-.88404h5.0414v24.562h1.2186zm-3.13-29.269v-4.1096h-.97961v4.1096zm0 28.385v-23.678h-.97961v23.678z"/><path d="m267.25 38.513q0 2.1026-1.5769 3.5601-1.553 1.4336-3.9424 1.4336-2.3893 0-3.9662-1.4336-1.577-1.4575-1.577-3.5601v-15.937q0-2.1026 1.577-3.5362 1.5769-1.4575 3.9662-1.4575 2.3893 0 3.9424 1.4575 1.5769 1.4336 1.5769 3.5362v3.0344h-3.8229v-5.1848q0-1.9592-1.6964-1.9592-1.7203 0-1.7203 1.9592v20.237q0 1.9592 1.7203 1.9592 1.6964 0 1.6964-1.9592v-5.1848h3.8229zm-1.9114-13.786v-2.9388q0-2.007-1.7681-3.13.78847.83626.78847 2.4371v3.6317zm-6.5945 17.179q-.64511-.93183-.64511-2.461v-17.8q0-1.5292.64511-2.461-1.6247 1.123-1.6247 3.0344v16.653q0 1.9114 1.6247 3.0344zm6.5945-2.6043v-2.9388h-.97962v3.6317q0 1.6008-.78847 2.4371 1.7681-1.123 1.7681-3.13z"/></g><path d="m32.748 68.832c-.42291-.14504-.81313-.37286-1.0788-.62983-.10855-.10498-.12402-.14497-.12345-.31887.0013-.42157.19763-1.0537.40938-1.3187l.07746-.09696.49135.20101c.6719.27487.81459.30376 1.3671.27679.6827-.0333.94883-.09522 3.2395-.7529.98816-.28373 1.2769-.33868 1.9184-.365.88919-.03655 1.4725.05813 3.3292.54042 1.3083.33978 2.4038.52322 3.1435.52637.51204.0022.61776-.0179.99691-.1894.04653-.02104.09907.03427.21789.22952.22205.36487.31269.69616.31269 1.1429v.36493l-.28179.14344c-.15498.07896-.44932.18723-.65408.24075-.33357.0872-.45023.09728-1.1216.09728-.92823-.000076-1.0797-.02657-2.4366-.42632-1.8182-.53566-2.3829-.63034-3.3211-.55678-.41677.03265-.68849.08893-1.6963.35116-.66002.17174-1.5008.37849-1.8683.45944-.65982.14533-.68083.14735-1.6611.15983-.95504.01215-1.003.0087-1.2602-.07906zm13.108-.36433c.06825-.01085.12411-.03655.12411-.05737 0-.02321-.12393-.02798-.32033-.01236l-.32032.02538-.01663-.19235c-.0092-.10574-.01395-.19675-.01066-.20213.0032-.0054.1372-.02126.29762-.03514.1771-.0154.2825-.04067.26832-.06432-.01398-.02332-.13624-.03015-.30435-.01703l-.281.02191-.000558-.1052c-.000279-.05781-.01093-.145-.02353-.19368-.02054-.07896-.0091-.08861.10554-.08882.22521-.000629.52953-.0488.52953-.08384 0-.04045-.16933-.04327-.49588-.0076l-.23977.02581.02541.39711c.01398.21842.03544.45531.04774.52641l.02237.1293.23416-.02299c.12879-.01269.29001-.03178.35827-.04251zm-12.006-.30126c.03522-.4662.03064-.73769-.01253-.73769-.02061 0-.04531.0398-.05489.0885-.03026.15369-.05671.92509-.03257.94996.05789.05965.07708.0022.09994-.30079zm.55391.07874-.01339-.24589h.53408l.03888.18888c.0214.1039.05587.18712.07665.18498.06061-.0065.02179-.28593-.0549-.39552-.06088-.08698-.0632-.11024-.01744-.17472.07637-.10759.06489-.24359-.02869-.34001-.07365-.07592-.11063-.08188-.38483-.06247-.16684.01171-.31253.03091-.32376.04241-.01983.02039.04577.72245.08786.94006.04028.20838.09922.11349.08552-.13771zm-.04751-.40648c-.01279-.03427-.02317-.12054-.02317-.19179 0-.11364.01469-.13259.11933-.15415.18674-.0385.35754-.02896.40765.02267.02521.02592.04583.1039.04583.17319 0 .10596-.01913.13286-.12026.16918-.1806.06486-.40177.0551-.42937-.01909zm10.371.45857c.05673-.06486.1212-.18697.14328-.27144.08338-.31899-.05625-.55825-.36797-.63059-.35921-.0834-.32105-.12282-.4318.44668l-.09946.51146.19276.04653c.27806.06703.44065.03742.56321-.1026zm-.45831.03698c-.06932-.01692-.13706-.04208-.15053-.05596-.02601-.02679.09926-.73731.1428-.80988.04363-.07267.35189.0218.44883.13759.13809.16496.10322.46782-.075.65143-.11658.1201-.15541.12826-.36609.07689zm-11.063-.44259c.31514-.51981.3067-.50225.24155-.50225-.02817 0-.1608.18828-.29474.4184-.1655.28436-.25256.40095-.27174.36394-.01551-.02993-.03996-.18727-.0543-.34956-.04295-.4858-.06507-.59014-.12511-.59014-.04011 0-.04962.02993-.03443.10824.01146.05954.0392.25868.06144.44261.08568.70861.11031.71422.47734.10881zm2.6292.33356c.0099-.01638-.02317-.21553-.07332-.44261-.05013-.22708-.09152-.4329-.09196-.45738-.000557-.02451.07728-.06475.17269-.08948.31534-.08178.13925-.1148-.20187-.03785-.40241.09078-.42988.10021-.42988.14675 0 .02223.0619.02202.15905-.000629.11215-.02592.16693-.02375.18577.0076.01471.02451.06607.2377.11415.47378.08007.39315.11645.48101.16536.39948zm7.7981-.23582c.0339-.12443.09403-.34093.13363-.48112.04573-.16186.0587-.26859.03555-.29245-.02005-.02061-.04267-.02993-.05026-.0205-.02034.02516-.25477.92252-.25477.97528 0 .02473.01671.04501.03712.04501s.06486-.10184.09874-.22623zm-6.5261-.13379c.11417-.11051.11593-.26756.0077-.69242-.05441-.21363-.10117-.32459-.13674-.32459-.03367 0-.04652.02603-.03403.06887.09044.31078.17605.67252.17605.74388 0 .1983-.3745.33191-.50651.18069-.03306-.03785-.10265-.22484-.15464-.41551-.052-.19067-.10494-.35738-.11766-.37049-.12934-.13325.05725.64956.19503.81827.14116.17284.38713.16909.5708-.0087zm5.5479-.12195c.02772-.1136.05702-.21863.06515-.23338.0081-.01475.12618.0054.26235.04392.18075.05163.24757.05792.24757.02321 0-.02614-.09626-.07126-.21393-.10032-.11766-.02907-.22233-.07549-.2326-.10303-.02156-.05781.0579-.32895.09626-.32849.01412.000152.13649.03503.27192.07744.23842.07473.32143.07614.24764.0043-.03956-.0385-.59648-.20582-.6165-.18519-.01398.01443-.27835.95084-.27835.98599 0 .01215.02253.02202.05006.02202.02853 0 .07172-.08882.10042-.20656zm-4.6184-.13284c0-.01356-.05317-.2089-.11816-.43411-.06498-.22521-.10931-.43318-.09852-.46218.01079-.02896.08115-.06464.15634-.07917.12149-.02343.19703-.10152.09825-.10152-.12217 0-.75964.21641-.72936.24762.02151.02213.09041.01746.17693-.01193.17543-.05965.16806-.07061.30835.45721.06561.24687.12794.40868.15739.40868.02682 0 .04876-.01106.04876-.02462zm3.4128-.04425c.02105-.07505.17676-.82454.17676-.85085 0-.0087.07148.000304.15883.02061.09697.02245.17255.02256.19405.000629.02151-.02213-.07382-.06095-.24475-.09967-.4713-.10683-.51794-.11283-.54338-.07039-.01479.02462.04372.0513.14812.06746.20645.03189.20569.02625.0811.59805-.06688.30692-.07619.40326-.03896.40326.0269 0 .05761-.03102.06824-.06887zm-.62516-.0834c0-.04089-.22431-.08286-.44645-.0834-.08801-.000293-.1707-.01822-.18371-.03991-.01306-.02169-.01199-.11963.0023-.21761l.02593-.17815.28189.02635c.18804.01757.28189.01258.28189-.01508 0-.02288-.12954-.0539-.28961-.06941-.27102-.02614-.28821-.0333-.26783-.11155.01199-.04599.022-.13309.02228-.19356.000557-.10173.0097-.10853.12463-.09045.39649.06225.52508.06497.52508.01085 0-.04078-.08891-.0616-.34833-.08178-.19158-.01486-.3583-.01681-.37047-.0043-.02849.02939-.11804.97765-.09476 1.0034.04628.0513.73718.09316.73718.04468zm-1.8004-.03037c.36863-.03969.28977-.10872-.08987-.07863l-.32459.0257v-.43324h.16707c.2157 0 .40574-.03959.40574-.08449 0-.02017-.13142-.02408-.3055-.0087l-.3055.02625v-.18092c0-.17352.0051-.18179.12411-.20223.06825-.01171.2001-.02581.29298-.03134.09478-.0054.17584-.03178.18476-.05976.01226-.03839-.04788-.04458-.26434-.02701-.49989.04056-.46468.0076-.43567.40325.04895.66665.05182.6768.19236.6768.06804 0 .22934-.01139.35844-.02527zm28.953 1.3779c-.1332-.11545-.20863-.24852-.24821-.43789l-.02673-.12787h.1723c.14556 0 .17632.01377.19818.0885.07875.26939.43072.45337.78472.41018.40589-.04956.59881-.30845.63345-.85013l.01902-.29772-.10249.12895c-.15317.19274-.37842.29676-.649.29969-.68087.0076-1.0675-.39174-1.1152-1.1514-.02568-.40847.03924-.68603.22706-.97056.33732-.51104 1.124-.5981 1.5027-.1663l.13014.14841v-.35432h.34368l-.000587 1.1901c-.000587 1.5485-.04715 1.8322-.34465 2.0901-.11821.1026-.12367.10325-.76239.10325-.6383 0-.64425-.000954-.76218-.10303zm1.1412-1.2083c.2404-.1639.36107-.44062.36317-.83281.0017-.36524-.05494-.56241-.21728-.75291-.15833-.18579-.29432-.25034-.52736-.25034-.33229 0-.57471.1987-.70641.57904-.06327.18272-.06923.54705-.01279.77825.04933.20186.25955.47146.43007.55156.18284.0859.48608.05303.67054-.07277zm-22.004.35731c-.02665-.43217-.1277-.76062-.33624-1.093-.09281-.14796-.13904-.25929-.12096-.29132.06827-.12096.47015-.43105.73145-.56437.25531-.13027.31791-.14543.65873-.15953.20713-.0087.3764-.0087.37616-.0011-.00028.0076-.0858.25342-.19012.54554l-.18968.53113.93282.9639h-.31197c-.42459 0-.8092.08926-1.1894.27615-.17529.08612-.32313.15663-.32853.15663-.0055 0-.01992-.16377-.03226-.36392zm4.2952.10824c-.42053-.12181-.77064-.4282-.94965-.83102-.05261-.11839-.12292-.37371-.15623-.56739-.05194-.30193-.05362-.39846-.01173-.67688.09502-.63236.39866-1.0958.87682-1.3382.23991-.12162.27191-.12749.69138-.1268.40184.00064.45849.0098.65599.1094.37683.18941.62112.4979.69948.88329l.02598.12787h-.17309c-.16979 0-.17461-.0033-.25321-.18688-.1603-.37394-.45145-.58762-.8533-.62627-.37616-.03622-.63034.0577-.90195.33336-.31764.32232-.3987.55585-.3987 1.1486 0 .58421.0823.82287.39418 1.143.17387.17848.25623.23133.44499.28553.38834.11152.6773.07147.94567-.13107.23988-.18104.38807-.43585.46283-.79583.02056-.09902.03742-.10824.19792-.10824h.17545l-.02588.18688c-.0642.46373-.38241.91609-.7745 1.101-.26736.12611-.76554.15841-1.0724.06952zm2.6293.0128c-.50805-.15018-.67606-.85629-.28741-1.2079.16286-.14733.39875-.22194.89907-.28442.45661-.05705.57074-.12403.57074-.33514 0-.19559-.09873-.36615-.24953-.43107-.16746-.07212-.51816-.07169-.68645.000955-.14278.06149-.28564.26418-.28587.40564-.000114.07906-.01911.0885-.17687.0885h-.17672l.02493-.16721c.03489-.23398.1995-.46451.40796-.5713.2231-.11431.5979-.15109.89406-.08774.27295.05835.48337.24703.54957.49274.02413.08958.04226.48673.04237.92869.000278.8253.01658.89795.18932.84147.07006-.02288.07821-.0087.07821.13444v.16003l-.20048-.0011c-.23591-.0011-.32484-.059-.35842-.23202l-.02455-.12644-.15697.15855c-.08634.0872-.23217.18585-.32407.2192-.1859.06746-.5267.07418-.7289.01443zm.76235-.34835c.16521-.08698.3257-.25817.37944-.40472.02233-.06095.04062-.21702.04062-.3469 0-.20699-.0083-.23346-.06683-.21433-.03675.01204-.26383.05835-.50461.10303-.58121.1078-.76511.22625-.76511.4929 0 .08113.12778.36827.16541.37174.0036.000293.07517.02646.15918.05824.1768.0667.39305.04479.5919-.05987zm5.9954.31759c-.14061-.049783-.25105-.12307-.33414-.22166l-.12411-.14727v.3672h-.30548v-3.4622h.3055v1.3488l.15015-.17574c.32177-.37662.96146-.41076 1.3749-.07332.0963.07863.19871.22116.27793.38695.11981.25074.12543.28285.12537.71579-.000079.41749-.0088.47289-.11131.70167-.24289.54229-.78165.76429-1.3588.55988zm.55051-.24166c.36059-.10314.56216-.42047.58789-.92544.02553-.50098-.14291-.89338-.4548-1.0595-.13508-.07191-.45661-.07353-.62031-.0033-.17319.07451-.38812.34606-.4478.56566-.17901.65872.08857 1.3046.5919 1.4287.16739.04121.17762.04111.34313-.0065zm4.3363.25818c-.25179-.07993-.46366-.2856-.59391-.57641-.10246-.22877-.11126-.28417-.11131-.70166-.00008-.43444.0052-.46436.12748-.72019.09372-.19613.17475-.30243.3055-.40077.45251-.3403 1.1392-.25556 1.43.17647.06294.09349.06546.07126.06546-.5803v-.67759h.3055v3.4622h-.3055v-.35401l-.15069.15068c-.25689.25684-.68374.34504-1.0725.22159zm.77394-.34413c.35292-.20144.52383-.80642.37708-1.3347-.0616-.22179-.27634-.49291-.44939-.56741-.1637-.0705-.48523-.06887-.62031.0033-.16516.08796-.33228.30836-.40506.53416-.09986.30974-.06691.78244.07298 1.0473.22172.41972.62615.54507 1.0247.31761zm4.4845.34336c-.24957-.08264-.48772-.33348-.59894-.63096-.12517-.33478-.12543-.92233-.000586-1.2553.21678-.57814.77601-.85302 1.3594-.66819.20733.06572.33348.1631.48667.37581.13601.18886.20088.3934.23309.73499l.0269.28523h-1.8825l.02697.16722c.03311.20532.1096.36819.24187.51497.15479.17178.30502.23531.551.233.2943-.0022.47086-.12183.62172-.41927.10898-.21487.11575-.22033.27404-.22042.08927-.000043.1623.0076.1623.01811 0 .0098-.0353.11048-.07845.22326-.10331.27004-.27676.49044-.463.58832-.20662.10861-.70907.13646-.96046.05325zm1.1364-1.5814c-.05464-.25422-.10143-.35811-.21541-.47823-.18784-.19794-.31668-.25065-.56711-.232-.34584.02581-.56274.24052-.67762.67088l-.03939.14754h1.5228zm-40.903 1.4204c-.29891-.16936-.74952-.28931-1.0869-.28931-.22232 0-.2612-.0098-.2612-.06822 0-.03753.17407-.24814.38683-.46809l.38683-.39982-.16282-.46632c-.08955-.25648-.17178-.49069-.18273-.52046-.0163-.04425.04635-.05119.34442-.03774.32698.01475.39396.03145.65338.1636.27136.13817.71258.49978.71258.58399 0 .02093-.041.09436-.09111.16327-.22999.31615-.35568.68771-.39172 1.158-.01367.17852-.03523.32247-.04788.31989-.01266-.0022-.1295-.06507-.25966-.13878zm24.925-1.1155v-1.259h.3055l.000586.18688.000588.18688.12354-.14453c.1597-.18683.33254-.27256.59752-.29637.2987-.02679.56432.07917.68735.27439l.09209.14612.13023-.15674c.16602-.19982.45433-.29712.76795-.25913.26065.03156.4381.14098.57166.35249l.10258.16244.02558 2.0656h-.35024v-.92376c0-.76069-.01093-.95195-.06202-1.0834-.07674-.19763-.21164-.27474-.48025-.27455-.25626.000152-.41859.09815-.53477.32288-.0822.15898-.088.22063-.10013 1.0638l-.01293.89506h-.33745v-.93943c0-1.057-.01908-1.1591-.23961-1.2814-.0955-.05303-.18139-.06713-.32229-.05325-.23635.02332-.40433.14023-.51676.35942-.07783.15175-.08512.22879-.09829 1.0393l-.01422.87538h-.33633zm6.6064 0v-1.259h.3055l.0012.26556c.0012.21497.0092.25058.04315.18688.14964-.28044.49464-.49178.80274-.49178.1021 0 .10763.0087.10763.17703v.17705h-.14072c-.30254 0-.64022.27075-.73221.58708-.0259.08904-.04359.44748-.04359.88301v.73312h-.34368zm1.4893 0v-1.259h.34369v2.518h-.34369zm-30.932-.72442c-.39014-.072015-.83843-.23236-1.1933-.42685l-.29595-.16217v-1.3104c0-.72072.01413-1.3104.03141-1.3104.01727 0 .12846.05412.24708.12034.55617.31036 1.1926.47846 1.8218.48118.66544.0033 1.109-.10694 1.7283-.42811.18393-.09533.34289-.17341.35323-.17341.01039 0 .0188.59158.0188 1.3146v1.3146l-.18139.10455c-.30188.17398-.68254.33428-.99385.41853-.37983.10282-1.1372.13114-1.536.05748zm10.525.01486c-.3614-.05857-.83816-.22371-1.2075-.41818l-.34345-.18087v-1.3128c0-.72206.01412-1.3128.03141-1.3128.01727 0 .12846.05412.24708.12035.55617.31036 1.1926.47844 1.8218.48118.66544.0033 1.109-.10705 1.7283-.42811.18393-.09533.34289-.17342.35323-.17342.01039 0 .0188.59177.0188 1.315v1.315l-.20048.11152c-.64518.35889-1.0807.4848-1.7471.50506-.26253.0076-.57849-.0011-.70212-.02191zm-7.5845-.85471v-.18728l1.3938-1.4303.26589-.0011c.16797-.000954.27675.01649.29536.04675.02287.03709.02961.03677.03006-.0011.000557-.03655.11786-.04913.45812-.04913h.45753l.02212 1.7901.0176-1.7901h.15275c.09642 0 .15297.01811.15333.04913.000557.03742.0075.03796.02954.0022.02069-.03351.19384-.04479.60614-.03937l.57719.0076.71073.6812.71073.68121v.4277h-5.8808zm.44652.0011c-.0097-.03829-.01824-.01649-.01903.04848-.000851.06486.0072.0962.0176.06963.01053-.02668.01106-.07972.0015-.11803zm3.1312-.04013c-.0096-.03785-.01747-.0065-.01747.06887 0 .0757.0079.10672.01747.06887.0096-.03785.0096-.09989 0-.1377zm1.2603.04013c-.0097-.03829-.01824-.01649-.01902.04848-.000851.06486.0072.0962.0176.06963.01053-.02668.01106-.07972.0015-.11803zm.64918 0c-.0097-.03829-.01824-.01649-.01903.04848-.00085.06486.0072.0962.0176.06963.01053-.02668.01106-.07972.0015-.11803zm-3.1317-.25383c-.01226-.03134-.02125-.02202-.02307.02375-.0017.04143.0073.06475.02005.05163.01266-.01312.01404-.04696.0031-.07538zm.15275-.98358c-.01226-.03145-.02123-.02202-.02307.02375-.0017.04143.0073.06475.02005.05163.01266-.01312.01405-.04696.0031-.07538zm.03819-.23606c-.01226-.03134-.02125-.02202-.02307.02375-.0017.04154.0073.06475.02005.05163.01266-.01312.01405-.04707.0031-.07538zm25.445 1.0893v-.25573h.34369v.51146h-.34369zm-27.991-1.7275v-.44881l-.19094-.17686-.19093-.17686v-5.5157h.45824v.6689h.49643v-.66884h1.222v.66884h.49643v-.66884h1.222v.66884h.49643v-.66884h1.2602v.66884h.49643v-.66884h.49643v5.4913l-.19093.19377-.19094.19376v.88818h-.72555v-2.7934h-.84012v.59015h-.3055v-.59015h-.57281v.59015h-.3055v-.59015h-.53462v.59015h-.30549v-.59015h-.53462v.59015h-.34368v-.59015h-.84012v2.7934h-.57281zm1.4129-2.856v-.23607h-.63524l-.06426.21001c-.03534.11551-.06426.22173-.06426.23606 0 .01432.17184.02603.38187.02603h.38187zm.8783 0v-.23607h-.53462v.47212h.53462zm.84012 0v-.23607h-.53462v.47212h.53462zm.8783 0v-.23607h-.57281v.47212h.57281zm1.0219 0-.08243-.23607h-.63396v.47212h.79883zm-3.6186-.74761c0-.22235-.0053-.23606-.09081-.23606-.06659 0-.12772.0552-.22912.20688-.07606.11379-.1383.22002-.1383.23607s.1031.02917.22912.02917h.22912zm.8783 0v-.23606h-.53462v.47211h.53462zm.84012 0v-.23606h-.53462v.47211h.53462zm.8783 0v-.23606h-.57281v.47211h.57281zm.76374.21301c0-.01269-.06444-.1187-.1432-.23559-.10097-.14985-.16855-.21268-.22912-.21302-.07961-.000661-.08592.01692-.08592.2356v.23605h.22912c.12602 0 .22912-.01084.22912-.0231zm-4.3533-.43726c0-.07917-.01106-.0949-.04326-.06171-.02379.02451-.03293.07234-.02028.10618.03495.09381.06355.07375.06355-.04458zm5.0025 0c0-.07917-.01106-.0949-.04326-.06171-.02379.02451-.03293.07234-.02028.10618.03495.09381.06355.07375.06355-.04458zm-3.1313-.56128v-.35276l-.1432.08514c-.33653.20005-.39142.26288-.39142.44803v.17238h.53462zm.84012-.05857v-.41133l-.13365-.02581c-.07352-.01421-.1938-.01421-.26731 0l-.13366.02581v.82265h.53462zm.8783.25542c0-.14646-.01384-.1656-.22836-.31568-.35871-.25097-.34444-.25648-.34444.13296v.33863h.57281zm-3.2173-.02126c-.0052-.01789-.18995-.03048-.41048-.02798-.47146.0054-.42884.0011-.40684.03807.02435.04045.8292.03069.81732-.0098zm5.0025 0c-.0052-.01789-.18995-.03048-.41048-.02798-.47146.0054-.42884.0011-.40684.03807.02435.04045.8292.03069.81732-.0098zm-5.3748-.33424c0-.04327-.01719-.07874-.03819-.07874s-.03819.03547-.03819.07874.01719.07863.03819.07863.03819-.03536.03819-.07863zm5.0025 0c0-.04327-.01719-.07874-.03819-.07874s-.03819.03547-.03819.07874.01719.07863.03819.07863.03819-.03536.03819-.07863zm-4.697 4.6031v-.39344h4.3151v.78687h-4.3151zm48.765.27425c-.35504-.06453-.60558-.24026-.71181-.49921-.10548-.25714-.08363-.2865.21329-.2865.24922 0 .26823.0065.31505.10466.08662.18197.22049.25335.47756.25461.42592.0022.58279-.15254.61424-.60552l.01966-.28311-.12447.12825c-.06847.0705-.18485.15424-.25864.186-.1615.06952-.49916.07505-.70501.0115-.21293-.06573-.46231-.30748-.56966-.55223-.07921-.18059-.09124-.26774-.09124-.66049 0-.41601.0084-.46873.10349-.65459.30483-.59541 1.0119-.78559 1.4908-.40096l.1432.11503v-.23978h.53913l-.02372 2.7398-.13337.19922c-.15898.23749-.38832.38107-.70421.4409-.25191.04772-.34326.04805-.59443.0022zm.4239-1.4205c.31743-.10911.52727-.5099.4759-.90892-.0311-.24155-.09064-.366-.24972-.52184-.10578-.10368-.14781-.11802-.34458-.11802-.19684 0-.23873.01432-.3443.11802-.17386.17073-.23928.35197-.24138.66884-.0024.39208.11519.60511.41384.74847.1415.06789.13294.06757.29025.01345zm-52.718 1.3388c-.38148-.05737-.78911-.18804-1.1488-.36842-.55244-.27702-.54267-.23331-.13127-.58696.2724-.23417.37312-.29932.43394-.28066.65912.20206.81044.2275 1.3585.22834.55313.000943.67444-.01963 1.3619-.22926.06651-.02028.1427.03395.39142.2788.16986.16718.30883.31593.30883.33053 0 .05314-.60069.35442-.93558.46921-.54623.18725-1.0944.24024-1.6388.15843zm10.463 0c-.38148-.05737-.78911-.18804-1.1488-.36842-.55244-.27702-.54267-.23331-.13127-.58696.2724-.23417.37313-.29932.43394-.28066.65912.20206.81044.2275 1.3585.22834.55313.000943.67444-.01963 1.3619-.22926.06652-.02028.14271.03395.39142.2788.16986.16718.30883.31593.30883.33053 0 .05314-.60069.35442-.93558.46921-.54623.18725-1.0944.24024-1.6388.15843zm7.1542-.83406c-.49415-.14405-.78401-.47588-.85721-.98136l-.02708-.18688h.61116l.02662.14621c.07658.42058.57105.66062 1.068.51847.46374-.13265.49527-.7126.04659-.85713-.06641-.02137-.33352-.09598-.59355-.1657-.55277-.14825-.77699-.28149-.92005-.54675-.07361-.13648-.09486-.23113-.09276-.4131.0069-.59453.47784-.97903 1.1992-.97903.69333 0 1.1601.34122 1.245.91019l.02496.16721h-.60866l-.04492-.15447c-.05754-.19787-.222-.3394-.45294-.38982-.33705-.07353-.6435.03829-.73613.26867-.04248.10564-.04075.14348.01173.257.08041.17371.18622.22588.79678.39286.27983.07657.56034.16777.62335.20277.30839.17128.47513.44964.4765.79544.0017.44917-.15868.71246-.55745.91472-.2264.11483-.28863.12801-.65737.13921-.25399.0076-.473-.0065-.58184-.0385zm14.504.01106c-.54713-.14233-.84907-.5897-.84907-1.258 0-.57001.21818-.97871.6274-1.1753.1802-.08655.26525-.10206.5564-.10119.41534.0011.67001.09989.88229.34194.24055.27432.30151.46327.30151.93451 0 .339-.01467.44573-.08162.59497-.11737.26152-.32852.48409-.5541.58408-.2221.09848-.65806.13744-.88281.07896zm.53273-.47378c.50967-.19896.60918-1.0814.16533-1.4662-.22504-.19509-.5745-.17612-.76971.04176-.36232.40444-.26109 1.2102.17726 1.4109.14054.06431.28525.06898.42712.01356zm9.1872.42109c-.289-.11332-.4625-.2452-.65827-.50036-.22263-.29017-.31542-.5759-.33641-1.0359-.02116-.46386.02932-.73832.19603-1.0654.38576-.7569 1.3008-1.0503 2.0754-.66552.2459.12215.51902.42838.59974.67244.10664.32245.10315.32718-.24174.32718h-.30254l-.04271-.13332c-.06616-.20653-.27886-.40586-.50784-.47593-.69789-.21352-1.2994.52024-1.1742 1.4325.09133.66567.51259 1.0769 1.0376 1.0128.32811-.04002.60832-.33684.70266-.74427.02456-.10618.03045-.10824.31263-.10824h.28758l-.02295.19976c-.05093.44303-.34862.86296-.74548 1.0516-.3154.14992-.84315.16454-1.1795.03264zm3.0661.03514c-.5793-.17151-.9106-.80738-.78823-1.5128.09288-.53547.4006-.88147.87646-.98551.59934-.13104 1.1613.12989 1.3868.64384.07409.1689.08815.26682.08815.61405 0 .34722-.01408.44516-.08815.61405-.1094.2494-.31298.45784-.55437.56758-.23595.10726-.66453.13468-.92065.05878zm.57764-.45622c.62672-.24464.57659-1.4457-.06642-1.5912-.28844-.06529-.52744.07397-.67062.3908-.20175.44638-.03619 1.0481.32979 1.1985.12694.05217.2767.05293.40724.0022zm4.2789.47374c-.33927-.08817-.55076-.26412-.72627-.60423-.07248-.14047-.08364-.2246-.0841-.63408-.000586-.41194.01026-.49276.08358-.63408.18253-.35152.41991-.55501.74429-.63805.42509-.10881.75411-.01529 1.0616.30188.25324.26117.34395.48779.34395.85922v.24872h-1.7245l.02673.12787c.06873.32886.25959.50724.56774.5306.22704.01724.40714-.07625.51171-.26561.0616-.11155.07653-.11697.32236-.11721.29232-.000293.30746.02158.18472.26689-.09311.18612-.28245.36975-.49362.47873-.18964.09783-.59552.13724-.81823.07939zm.8503-1.6119c-.08322-.29894-.34834-.49782-.61456-.46104-.24581.03395-.42457.20596-.50974.4904l-.02649.0885h1.1836zm4.3342 1.6016c-.2369-.0744-.3814-.16903-.52872-.34633-.40919-.49253-.37213-1.4146.07484-1.8619.22923-.22936.44775-.31832.77847-.31691.35336.0011.62426.114.8245.34234.212.24176.28112.43472.28208.78755l.000879.3049h-1.6802l.000586.0885c.000881.1215.14961.37937.27338.47391.05619.04295.18652.08644.28963.09663.23098.02288.39566-.05596.51559-.2467.0835-.13284.09143-.13598.34324-.13646.14177-.000293.25776.01497.25776.03384s-.03333.11183-.07405.20654c-.08872.2063-.26652.38828-.4942.50582-.20173.10412-.63929.13867-.86376.06822zm.8974-1.5303c0-.09479-.15695-.36882-.25176-.43952-.26035-.19416-.67144-.08047-.81519.22549-.04327.09208-.07867.1884-.07867.21403 0 .03384.15697.04664.57281.04664.41583 0 .57281-.0128.57281-.04664zm-31.905 1.5152c-.20995-.04761-.29913-.11218-.36678-.26563-.06124-.13893-.07081-.26687-.07153-.95707l-.000879-.7967h-.38188v-.43277h.38187v-.74752h.57281v.74752h.45824v.43277h-.45824v.73965c0 .52284.01343.7535.04583.78687.02521.02592.12831.04718.22912.04718h.1833v.21147c0 .20537-.0035.21217-.11933.23606-.12935.02668-.35065.02581-.47257-.0011zm-4.1815-1.2325v-1.2196h.57281v2.4393h-.57281zm.86341 1.1705c.03114-.0551.6311-.92774.76479-1.1124l.08615-.119-.39893-.56025c-.21941-.30814-.39893-.56884-.39893-.57935 0-.01085.15224-.01909.3383-.01909h.3383l.45659.71032.48582-.71032h.31701c.17436 0 .31701.01084.31701.02408 0 .01323-.15987.2478-.35526.52129s-.36822.51934-.38405.54632c-.018.03069.12702.27398.38692.64916.22864.33006.42825.62223.44358.64928.02143.03785-.05045.04913-.31083.04913h-.3387l-.56596-.85868-.55693.85868h-.32635c-.25044 0-.31988-.01139-.29855-.04913zm4.2537-1.6426v-1.6918h.53462v1.194l.08592-.08091c.17572-.16555.34255-.22574.62863-.22682.32913-.0011.55234.10336.6999.32804.09293.14149.09407.15399.1053 1.1561l.01133 1.0131h-.53824l-.000278-.79671c-.000112-.43817-.0179-.86232-.03952-.94254-.11016-.40864-.65486-.40321-.86625.0087-.08192.15962-.08685.21364-.08685.94992v.78068h-.53462zm3.9333 0v-1.6918h2.253v.5508h-1.642v.82621h1.4511v.5508h-1.4511v1.4557h-.61099zm5.1934.47212v-1.2196h.53462l.0024.33442.10398-.1266c.13066-.15905.39856-.28451.60997-.28564l.16229-.001v.57048h-.20319c-.26729 0-.45315.12656-.55959.38105-.06785.16169-.07733.26925-.07733.87538v.69105h-.5728zm1.642 0v-1.2196h.53462v.28456l.15004-.13967c.32205-.29976.82628-.29825 1.1257.0033l.12575.12669.07254-.08264c.15098-.17199.3598-.25008.66445-.24845.33451.0022.47905.06507.63766.27919l.10699.14442.02266 2.0718h-.53302l-.02426-1.8164-.12471-.11474c-.22198-.20422-.5312-.13026-.67798.16219-.04464.08893-.05651.28654-.05651.94076v.82817h-.57281v-.86751c0-.69681-.01133-.89011-.05767-.98242-.15446-.30773-.58015-.25011-.74506.10086-.06765.14395-.07557.24407-.07557.95494v.79412h-.57281v-1.2197zm11.265-.47212v-1.6918h.53462v3.3835h-.53462zm1.1074 0v-1.6918h.53462v3.3835h-.53462zm-48.179 1.4394c-.1505-.02961-.38679-.09262-.52507-.13998l-.25143-.08622v-4.4703l.3055.07982v.49443l.27686.03319.27686.0333.01133-.22622c.01119-.22167.01365-.22623.12412-.22623.11233 0 .11273.001.11273.23606v.23606h.611v-.23606c0-.23522.000557-.23606.11273-.23606.11047 0 .11297.0043.12411.22623l.01133.22622.27686-.0333.27685-.03319v-.24774c0-.23777.0043-.24878.10502-.27354.05775-.01421.13508-.03503.17184-.04631.0631-.0193.06683.10455.06683 2.217v2.2374l-.18786.06963c-.53097.19672-1.3698.26988-1.8997.16572zm.7206-1.1856c.03379-.07646.03361-.13094-.00085-.22902-.02545-.07256-.04517-.33778-.04517-.60788v-.47916h.24354c.16989 0 .25792.01789.29108.059.05946.07386.15455.07549.24902.0043.06176-.04653.06503-.06431.02172-.11803-.05621-.06974-.2526-.08601-.28983-.02397-.01293.02158-.13555.03937-.27237.03937h-.24877l.01699-.32458c.0093-.17852.02881-.36885.04323-.42295.01714-.06431.0056-.12561-.0333-.17704l-.05951-.07863-.05951.07863c-.0389.05141-.05044.11275-.03329.17704.01443.05412.03386.24443.04323.42295l.01699.32458h-.21104c-.11607 0-.25354-.01996-.30549-.04436-.1158-.05434-.29102-.01486-.29102.06562 0 .03254.04225.07896.0939.10314.07504.03525.11313.03113.18959-.0205.05962-.04024.17537-.06464.30706-.06464h.21137v.48592c0 .26725-.01933.54305-.04296.61288-.03145.09295-.03166.15251-.000852.22226.05424.12262.11046.12093.16615-.0054zm9.7427 1.1856c-.1505-.02961-.38679-.09262-.52507-.13998l-.25143-.08622v-4.4703l.3055.07982v.49443l.27686.03319.27686.0333.01133-.22622c.01119-.22167.01364-.22623.12411-.22623.11233 0 .11273.001.11273.23606v.23606h.61099v-.23606c0-.23522.000559-.23606.11274-.23606.11047 0 .11297.0043.1241.22623l.01133.22622.27686-.0333.27686-.03319v-.24774c0-.23777.0043-.24878.10502-.27354.05775-.01421.13509-.03503.17184-.04631.0631-.0193.06683.10455.06683 2.217v2.2374l-.18786.06963c-.53097.19672-1.3697.26988-1.8997.16572zm.7206-1.1856c.03379-.07646.03361-.13094-.000852-.22902-.02545-.07256-.04517-.33778-.04517-.60788v-.47916h.24354c.16989 0 .25792.01789.29108.059.05946.07386.15454.07549.24902.0043.06175-.04653.06502-.06431.02172-.11803-.05621-.06974-.2526-.08601-.28983-.02397-.01293.02158-.13555.03937-.27237.03937h-.24877l.01702-.32458c.0093-.17852.02881-.36885.04321-.42295.01714-.06431.0056-.12561-.03329-.17704l-.05951-.07863-.05951.07863c-.0389.05141-.05044.11275-.0333.17704.01443.05412.03391.24599.04332.42643l.0171.32807-.24157-.02202c-.53279-.04859-.5445-.04805-.55845.0244-.0083.04295.02281.08535.08347.11377.0783.03677.11477.03308.19231-.0192.05962-.04024.17537-.06464.30706-.06464h.21137v.48592c0 .26725-.01934.54305-.04296.61289-.03145.09295-.03166.15251-.00085.22226.05423.12262.11046.12093.16615-.0054zm8.737-1.6701v-.2754h.57281v.5508h-.57281zm-19.934-1.8346c-.21348-.02082-.7408-.12396-.90694-.17742-.12201-.03926-.12411-.04393-.12411-.27713v-.2372l-.26731-.28401-.26731-.28402v-.76124h.57281v.51147h.42006v-.51147h.95468v1.0229h.49643v-1.0229h.95468v.51147h.42006v-.51147h.57281l-.000143.3836-.000146.3836-.24791.29508c-.24262.28879-.2479.29986-.24806.51978l-.000146.22471-.1432.03861c-.53754.14483-1.6147.2314-2.1862.1757zm10.463 0c-.21348-.02082-.7408-.12396-.90694-.17742-.12201-.03926-.12411-.04393-.12411-.27713v-.2372l-.26731-.28401-.26731-.28402v-.76124h.57281v.51147h.42006v-.51147h.95468v1.0229h.49643v-1.0229h.95468v.51147h.42006v-.51147h.57281l-.000146.3836-.000144.3836-.24791.29508c-.24262.28879-.2479.29986-.24806.51978l-.000145.22471-.1432.03861c-.53753.14483-1.6147.2314-2.1862.1757zm13.69-.63929c-.29943-.0808-.56079-.31153-.62923-.55554-.0749-.26708-.06807-.2754.22647-.2754h.26552l.06423.13944c.08274.17964.24196.26264.49778.25949.33501-.0043.53536-.16533.43812-.35253-.0634-.12206-.19915-.19075-.52069-.26348-.66374-.15015-.9041-.31723-.95451-.66354-.07401-.50851.31095-.82753.99419-.82389.54524.0033.85281.2077.97587.64977l.03075.1105h-.2967c-.28104 0-.29905-.0054-.3411-.10043-.12474-.28205-.80797-.26095-.80797.02494 0 .12026.18148.22398.54574.31193.43503.10499.6768.20969.8008.34668.30441.3363.17425.87266-.26557 1.0944-.18197.09175-.27397.11117-.56331.11908-.1902.0054-.39738-.0043-.46038-.02147zm6.8882-.03785c-.27713-.11526-.44464-.27606-.57929-.55614-.11451-.23816-.12256-.28209-.12256-.66883 0-.46023.05853-.65198.27735-.90876.40699-.47756 1.3149-.4947 1.7627-.0333.43466.44782.45611 1.3707.0431 1.8541-.22364.26176-.44945.35989-.86119.37427-.26709.0098-.38301-.0043-.52014-.06139zm.61946-.40488c.29542-.10152.49258-.43396.49258-.83048 0-.5138-.39877-.90544-.79035-.7762-.30444.10043-.48426.4013-.48146.80543.0029.38643.18664.68648.48898.79758.15027.0552.1407.0551.29025.0033zm1.7337.38653c-.231-.11488-.35619-.28142-.3873-.51525-.03342-.25113.01173-.4384.14275-.59213.13284-.15588.33821-.23391.77917-.29602.42057-.05922.6243-.14032.65346-.26007.10129-.41578-.76436-.50151-.9149-.09056-.04074.11121-.04816.11385-.31974.11385-.19708 0-.27797-.01432-.27782-.04913.000586-.12494.08819-.35295.1779-.46279.34544-.42297 1.3378-.4533 1.6974-.05184.16217.18101.18658.32506.18658 1.1009v.72198h.11456c.11311 0 .11456.0022.11456.21179 0 .241-.02444.25882-.35617.25978-.15353.000672-.20313-.01887-.29686-.1154l-.11253-.11594-.19958.10358c-.29386.15252-.73675.16907-1.0015.03742zm.95679-.47041c.06418-.03427.13721-.10873.1623-.16547.04411-.09978.06528-.49289.02656-.49289-.07982 0-.73721.13221-.78304.15748-.08488.04685-.17813.16481-.20671.26161-.03721.12605.11873.29279.30453.32561.17227.03048.32863.0033.49638-.08633zm1.8532.49372c-.23442-.08525-.47098-.34177-.57612-.62461-.09924-.26694-.12152-.82427-.04413-1.1041.13159-.47594.52123-.77982.99298-.77441.2853.0033.506.08275.66461.23924l.10502.10368v-1.195h.53462v3.3835h-.53462v-.24006l-.12411.0949c-.06825.05217-.18252.11508-.25392.1397-.17991.06204-.56251.05065-.76432-.02278zm.64976-.40984c.42845-.14726.62244-.79944.38215-1.2847-.10896-.22005-.27934-.3366-.49703-.34001-.35159-.0054-.60336.2777-.6421.72225-.04196.48158.20943.87395.60423.94307.01266.0022.08135-.01605.15274-.04056zm-19.747-1.2537v-1.6918h.61099v1.2983h1.4129v-1.2983h.611v3.3835h-.611v-1.5344h-1.4129v1.5344h-.611zm3.2459.45245v-1.2393h.53462v2.4786h-.53462zm1.0692-.45245v-1.6918h.57281v3.3835h-.57281zm1.1074 0v-1.6918h.53462v3.3835h-.53462zm4.7734-.0033v-1.6946l1.0024.01269c1.0016.01269 1.0026.0128 1.1956.11777.11652.06334.23774.17131.3055.27204.09592.14259.11428.21136.12571.4705.01704.3868-.06835.60791-.3022.78244-.08899.06638-.13774.12135-.10834.12207.07025.0022.18885.1086.27738.25.05001.07982.08046.23355.1025.5174.03314.4266.09028.70739.15196.74666.1021.06497.0064.09772-.2861.09772-.39116 0-.3889.0022-.42311-.51521-.0287-.43466-.09774-.65482-.23937-.76344-.08912-.06833-.1741-.08037-.64677-.09143l-.54417-.0128v1.3828h-.61099v-1.6946zm1.791-.25083c.22166-.1181.30765-.40984.19981-.67792-.08313-.20661-.22541-.24866-.84144-.24866h-.5384v.98358h.53652c.3938 0 .56498-.01518.64351-.05705zm-29 .37511c-.1055-.01746-.29024-.06128-.41051-.09728l-.21868-.06551v-.75431l-.19094-.22706c-.15325-.18226-.19094-.25514-.19094-.36927v-.1422h.38187v-.3138c41.853-.02993 59.924-.02202 12.793-.001v.31469h.38187v.16143c0 .13592-.02716.19254-.17184.35834l-.17184.19691v.77533l-.1432.03904c-.72057.19666-1.4341.20468-2.0239.02267l-.20048-.06182v-.75347l-.19093-.22706c-.15325-.18226-.19094-.25514-.19094-.36927v-.1422h.38187v-.31475h-8.1339v.31475h.38187v.16143c0 .13593-.02716.19254-.17184.35835l-.17184.19691v.77532l-.1432.03904c-.37444.10217-.51925.12354-.94513.13936-.25204.0098-.54457.0022-.65008-.01475zm.24911-1.695v-.27539h-.38187v.55081h.38187zm.99286 0v-.2754h-.42006v.55081h.42006zm9.4704 0v-.2754h-.38187v.55081h.38187zm.99286 0v-.2754h-.42006v.55081h.42006zm8.5539.1377v-.25572h.53462v.51146h-.53462z" fill="#500" stroke-width=".038761"/></g></svg>