<?xml version="1.0" encoding="UTF-8"?>
<svg enable-background="new 0 0 580 520" version="1.1" viewBox="0 0 580 520" xml:space="preserve" xmlns="http://www.w3.org/2000/svg">
<style type="text/css">
	.st0{fill:#1C3C71;}
	.st1{fill:#193D6F;}
	.st2{fill:#CD1719;}
</style>
<path class="st0" d="m203.2 99.8c-14.5 11.9-33.5 12.8-42.5 1.9s-4.5-29.4 10-41.3 33.5-12.8 42.5-1.9 4.6 29.4-10 41.3"/>
<path class="st1" d="m375.6 88.8c-23.5 6.2-46.8-4.7-51.9-24.2s9.8-40.4 33.4-46.5c23.5-6.2 46.8 4.7 51.9 24.2s-9.9 40.4-33.4 46.5"/>
<path class="st1" d="m423.4 241.7c22.2 24.4 22.5 60.4 0.6 80.3s-57.6 16.2-79.9-8.2c-22.2-24.4-22.5-60.4-0.6-80.3s57.6-16.2 79.9 8.2"/>
<path class="st1" d="m295 130.2c-13.1-15.9-37.9-17.1-55.4-2.6-10.4 8.6-15.9 20.8-15.9 32.6-1.6 11.3-4.8 24.9-19.5 38.4-15.4 14.1-31.2 17.3-44.8 17.1-18.7 0-34.9 19.1-36.6 41.8-1.8 23.5 12.7 43.8 32.3 45.4 19.7 1.5 34.6-16.6 41.5-39.2 1.2-3.8 1.4-8.4 1.6-10.8 0.9-11.6 5.7-23.5 18.3-38.2 10.9-12.7 22.7-14.9 33.4-18 0 0 1.8-0.3 4-0.4 0.9 0 2.7-0.1 3.9-0.2 10.4-0.6 20.1-3.5 29.2-10.9 17.5-14.5 21.1-39.1 8-55"/>
<path class="st2" d="m425 149.5c-1.4-24.4-25.1-43.2-53-41.2-0.3 0-2.6 0.4-2.9 0.5l-3 0.5c-4.2 0.3-3.3 0.2-7.5 0.2-26.6 0-49.2-16.7-55.3-40.8-1-5.5-1.3-11.3-3.5-15.8-7.4-15.9-27.9-22-45.6-13.7-13 6.1-22.5 17.2-22.4 30.6v0.8c-1 27.3-22.5 49.6-50 52.7v0.1c-11.6 0.7-24.2 8.4-32.3 21.2-11.9 18.7-10 41.1 4.2 50.1s35.3 1.1 47.1-17.6c4.4-7 6.9-14.5 7.6-21.6 1.8-31 27.3-55.6 58.2-55.6 32.1 0 58.1 26.4 58.1 59.1 0 32.6-26 59.1-58.1 59.1-3.6 0-4-0.5-9.1-0.5l-2.2 0.1c-24.1 1.5-42.4 24.9-41.1 52.5 1.3 27.8 22.2 49.5 46.6 48.3s43.1-24.7 41.8-52.5c0-1-0.1-2-0.2-2.9l-0.3-1.5c-0.5-4.6-0.5-6.3-0.5-10.2 0-31.1 26-56.4 58-56.4 4.6 0 8.9 1.5 13.3 1.5 2.7 0 2.7 0 4.1-0.1 28-1.4 49.4-22.5 48-46.9"/>
<path class="st1" d="m72.5 386.4v28c0 8.4 3.2 12.6 8.8 12.6 5.8 0 9-4 9-12.6v-28h11v27.3c0 15-7.6 22.2-20.3 22.2-12.3 0-19.5-6.8-19.5-22.3v-27.2h11z"/>
<path class="st1" d="m110.8 386.4h10.9v21.5h0.2c1.1-1.9 2.2-3.6 3.3-5.3l11.1-16.2h13.5l-16.1 20.7 17 27.9h-12.9l-11.9-21-4.2 5.1v15.9h-10.9v-48.6z"/>
<polygon class="st1" points="198.7 414.5 180.8 414.5 180.8 426 200.8 426 200.8 435 169.7 435 169.7 386.4 199.8 386.4 199.8 395.4 180.8 395.4 180.8 405.5 198.7 405.5"/>
<rect class="st1" x="208.2" y="383.8" width="11" height="51.3"/>
<path class="st1" d="m249.5 413.4c0-2.7-1.2-7.1-6.2-7.1-4.6 0-6.5 4.2-6.8 7.1h13zm-13 7.5c0.4 4.6 4.8 6.7 10 6.7 3.8 0 6.8-0.5 9.8-1.4l1.4 7.4c-3.6 1.4-8 2.2-12.8 2.2-12 0-18.9-6.9-18.9-18 0-9 5.6-18.8 17.8-18.8 11.4 0 15.7 8.9 15.7 17.6 0 1.9-0.2 3.5-0.4 4.3h-22.6z"/>
<path class="st1" d="m292.6 434.2c-2 0.9-5.6 1.6-9.8 1.6-11.4 0-18.7-6.9-18.7-18.1 0-10.3 7.1-18.8 20.2-18.8 2.9 0 6.1 0.5 8.4 1.4l-1.7 8.2c-1.3-0.6-3.2-1.1-6.1-1.1-5.8 0-9.5 4.1-9.5 9.9 0 6.5 4.3 9.9 9.7 9.9 2.6 0 4.6-0.4 6.3-1.1l1.2 8.1z"/>
<path class="st1" d="m312.1 389.6v10.1h7.9v8.1h-7.9v12.8c0 4.3 1 6.2 4.3 6.2 1.4 0 2.5-0.1 3.2-0.3l0.1 8.3c-1.4 0.6-4 0.9-7.1 0.9-3.5 0-6.5-1.2-8.2-3-2-2.1-3-5.5-3-10.5v-14.4h-4.7v-8.1h4.7v-7.7l10.7-2.4z"/>
<path class="st1" d="m326.4 411.4c0-5.2-0.1-8.6-0.3-11.6h9.5l0.4 6.5h0.3c1.8-5.1 6.1-7.3 9.5-7.3 1 0 1.5 0 2.3 0.1v10.3c-0.8-0.1-1.7-0.3-3-0.3-4 0-6.8 2.2-7.5 5.6-0.1 0.7-0.2 1.6-0.2 2.5v17.9h-11v-23.7z"/>
<path class="st1" d="m362.6 417.4c0 6.1 2.5 10.6 7.2 10.6 4.3 0 7-4.3 7-10.6 0-5.3-2-10.6-7-10.6-5.2-0.1-7.2 5.4-7.2 10.6m25.6-0.4c0 12.9-9.2 18.8-18.6 18.8-10.3 0-18.3-6.8-18.3-18.2s7.5-18.7 18.8-18.7c10.9 0 18.1 7.5 18.1 18.1"/>
<path class="st1" d="m395 411c0-4.4-0.1-8.2-0.3-11.3h9.5l0.5 4.8h0.2c1.4-2.2 5.1-5.6 10.9-5.6 7.2 0 12.6 4.8 12.6 15.2v20.9h-11v-19.6c0-4.6-1.6-7.7-5.6-7.7-3 0-4.8 2.1-5.6 4.1-0.3 0.6-0.4 1.7-0.4 2.7v20.4h-11v-23.9h0.2z"/>
<path class="st1" d="m437.2 399.7h11v35.3h-11v-35.3zm11.4-9.8c0 3-2.3 5.5-5.9 5.5-3.5 0-5.8-2.5-5.7-5.5-0.1-3.2 2.2-5.6 5.8-5.6 3.4 0 5.7 2.4 5.8 5.6"/>
<path class="st1" d="m483.6 434.2c-2 0.9-5.6 1.6-9.8 1.6-11.4 0-18.7-6.9-18.7-18.1 0-10.3 7.1-18.8 20.2-18.8 2.9 0 6.1 0.5 8.4 1.4l-1.7 8.2c-1.3-0.6-3.2-1.1-6.1-1.1-5.8 0-9.5 4.1-9.5 9.9 0 6.5 4.3 9.9 9.7 9.9 2.6 0 4.6-0.4 6.3-1.1l1.2 8.1z"/>
<path class="st1" d="m489.6 425.4c2 1.2 6.2 2.7 9.5 2.7s4.7-1.2 4.7-3-1.1-2.7-5.2-4c-7.3-2.5-10.1-6.4-10-10.6 0-6.6 5.6-11.6 14.4-11.6 4.1 0 7.8 0.9 10 2l-2 7.6c-1.6-0.9-4.6-2-7.7-2-2.7 0-4.2 1.1-4.2 2.9 0 1.7 1.4 2.5 5.7 4 6.7 2.3 9.5 5.7 9.6 10.9 0 6.6-5.2 11.4-15.3 11.4-4.6 0-8.7-1-11.4-2.5l1.9-7.8z"/>
<path class="st2" d="m17.3 491.4c3 1.5 7.5 3 12.2 3 5.1 0 7.7-2.1 7.7-5.3 0-3-2.3-4.8-8.2-6.9-8.1-2.8-13.4-7.3-13.4-14.4 0-8.3 6.9-14.7 18.4-14.7 5.5 0 9.5 1.2 12.4 2.5l-2.5 8.9c-1.9-0.9-5.4-2.3-10.2-2.3s-7.1 2.2-7.1 4.7c0 3.1 2.7 4.5 9 6.9 8.6 3.2 12.6 7.7 12.6 14.5 0 8.2-6.3 15.1-19.6 15.1-5.6 0-11-1.4-13.8-3l2.5-9z"/>
<path class="st2" d="m66.3 482.4c0.9-1.4 1.8-2.9 2.6-4.3l7.2-10.6h13.2l-12.6 14.3 14.4 21h-13.5l-8.5-14.5-2.8 3.5v11h-11v-51.3h11v30.9z"/>
<path class="st2" d="m95.2 467.5h11v35.3h-11v-35.3zm11.3-9.8c0 3-2.3 5.5-5.9 5.5-3.5 0-5.8-2.5-5.7-5.5-0.1-3.2 2.2-5.6 5.8-5.6 3.5 0 5.7 2.4 5.8 5.6"/>
<rect class="st2" x="115" y="451.5" width="11" height="51.3"/>
<rect class="st2" x="134.8" y="451.5" width="11" height="51.3"/>
<path class="st2" d="m154.6 493.2c2 1.2 6.2 2.7 9.5 2.7s4.7-1.2 4.7-3-1.1-2.7-5.2-4c-7.3-2.5-10.1-6.4-10-10.6 0-6.6 5.6-11.6 14.4-11.6 4.1 0 7.8 0.9 10 2l-2 7.6c-1.6-0.9-4.6-2-7.7-2-2.7 0-4.2 1.1-4.2 2.9 0 1.7 1.4 2.5 5.7 4 6.7 2.3 9.5 5.7 9.6 10.9 0 6.6-5.2 11.4-15.3 11.4-4.6 0-8.7-1-11.4-2.5l1.9-7.8z"/>
<polygon class="st2" points="201 454.1 230.7 454.1 230.7 463.1 212 463.1 212 474.3 229.5 474.3 229.5 483.2 212 483.2 212 502.8 201 502.8"/>
<path class="st2" d="m246.1 485.1c0 6.1 2.5 10.6 7.2 10.6 4.3 0 7-4.3 7-10.6 0-5.3-2-10.6-7-10.6-5.2 0-7.2 5.4-7.2 10.6m25.5-0.4c0 12.9-9.2 18.8-18.6 18.8-10.3 0-18.3-6.8-18.3-18.2s7.5-18.7 18.9-18.7c10.8 0.1 18 7.5 18 18.1"/>
<path class="st2" d="m311.8 491.4c0 4.6 0.1 8.4 0.3 11.3h-9.5l-0.5-5h-0.2c-1.4 2.2-4.7 5.8-11 5.8-7.2 0-12.4-4.5-12.4-15.4v-20.7h11v19c0 5.1 1.7 8.2 5.5 8.2 3 0 4.8-2.1 5.5-3.8 0.3-0.6 0.4-1.5 0.4-2.4v-21h11l-0.1 24z"/>
<path class="st2" d="m320.6 478.7c0-4.4-0.1-8.2-0.3-11.3h9.5l0.5 4.8h0.2c1.4-2.2 5.1-5.6 10.9-5.6 7.2 0 12.6 4.8 12.6 15.2v20.9h-11v-19.6c0-4.6-1.6-7.7-5.6-7.7-3 0-4.8 2.1-5.6 4.1-0.3 0.7-0.4 1.7-0.4 2.7v20.4h-11v-23.9h0.2z"/>
<path class="st2" d="m386.1 482.4c0-0.6-0.1-1.4-0.1-2-0.7-3-3-5.4-6.4-5.4-5 0-7.6 4.5-7.6 10 0 6 3 9.8 7.5 9.8 3.2 0 5.7-2.2 6.4-5.3 0.2-0.8 0.3-1.6 0.3-2.5l-0.1-4.6zm10.9-30.9v40.7c0 4 0.1 8.2 0.3 10.5h-9.7l-0.5-5.2h-0.1c-2.2 4-6.5 6-11.1 6-8.4 0-15.1-7.2-15.1-18.1-0.1-11.9 7.4-18.8 15.8-18.8 4.3 0 7.7 1.5 9.3 4h0.1v-19.1h11z"/>
<path class="st2" d="m424.6 486.1c-5.8-0.1-10.3 1.3-10.3 5.6 0 2.8 1.9 4.2 4.3 4.2 2.7 0 5-1.8 5.7-4 0.1-0.6 0.2-1.2 0.2-1.9l0.1-3.9zm1.3 16.7-0.6-3.5h-0.2c-2.3 2.8-5.9 4.3-10.1 4.3-7.1 0-11.4-5.2-11.4-10.8 0-9.2 8.2-13.6 20.7-13.5v-0.6c0-1.9-1-4.6-6.4-4.6-3.6 0-7.4 1.2-9.7 2.7l-2-7.1c2.5-1.4 7.3-3.1 13.7-3.1 11.8 0 15.5 6.9 15.5 15.2v12.3c0 3.4 0.1 6.6 0.5 8.6l-10 0.1z"/>
<path class="st2" d="m455.8 457.4v10.1h7.9v8.1h-7.9v12.8c0 4.3 1 6.2 4.3 6.2 1.4 0 2.5-0.1 3.2-0.3l0.1 8.3c-1.4 0.6-4 0.9-7.1 0.9-3.5 0-6.5-1.2-8.2-3-2-2.1-3-5.5-3-10.5v-14.4h-4.7v-8.1h4.7v-7.7l10.7-2.4z"/>
<path class="st2" d="m470 467.5h11v35.3h-11v-35.3zm11.4-9.8c0 3-2.3 5.5-5.9 5.5-3.5 0-5.8-2.5-5.7-5.5-0.1-3.2 2.2-5.6 5.8-5.6 3.4 0 5.6 2.4 5.8 5.6"/>
<path class="st2" d="m499.1 485.1c0 6.1 2.5 10.6 7.2 10.6 4.3 0 7-4.3 7-10.6 0-5.3-2-10.6-7-10.6-5.2 0-7.2 5.4-7.2 10.6m25.6-0.4c0 12.9-9.2 18.8-18.6 18.8-10.3 0-18.3-6.8-18.3-18.2s7.5-18.7 18.8-18.7c10.9 0.1 18.1 7.5 18.1 18.1"/>
<path class="st2" d="m531.4 478.7c0-4.4-0.1-8.2-0.3-11.3h9.5l0.5 4.8h0.2c1.4-2.2 5.1-5.6 10.9-5.6 7.2 0 12.6 4.8 12.6 15.2v20.9h-11v-19.6c0-4.6-1.6-7.7-5.6-7.7-3 0-4.8 2.1-5.6 4.1-0.3 0.7-0.4 1.7-0.4 2.7v20.4h-11v-23.9h0.2z"/>
</svg>
