<svg height="71.161" width="320.594" xmlns="http://www.w3.org/2000/svg"><path d="m315.63616 492.07206c-2.32469 0-5.0625 1.40651-5.0625 4.34375 0 2.00812 1.2166 3.26297 3.59375 4.4375 2.34905 1.20075 4.125 1.6472 4.125 4 0 1.197-.69498 3.28125-3.34375 3.28125-2.61692 0-3.92423-2.23541-4.4375-4l.0625 3.65625c.90665.51327 2.42701 1.375 4.5625 1.375 2.6188 0 5.40625-1.941 5.40625-5 0-3.28005-2.30217-4.01987-4.625-5.21875-2.35279-1.15204-3.34375-1.73957-3.34375-3.28125 0-1.05276.6357-2.59375 2.71875-2.59375 2.30222 0 3.67465 1.9836 3.96875 3.15625l-.125-3.21875c-1.15018-.76241-2.59709-.9375-3.5-.9375zm54.28125 0c-4.99969-.16859-7.92448 4.34497-8.03125 8.3125-.10678 5.04652 3.53384 8.68575 7.625 8.78125 3.52358.12738 7.76822-2.79461 7.875-8.375.10303-5.58789-3.98452-8.64195-7.46875-8.71875zm-138.6875.21875c.36528.19857.75.56116.75 1.125v10.28125c0 4.14174 3.61878 5.46875 6.3125 5.46875 3.06276 0 5.65625-1.48377 5.65625-5.5l.0625-10.25c0-.56384.26475-.92643.65625-1.125h-2.71875c.39151.19857.65625.56116.65625 1.125l.0937 10.34375c0 2.20668-1.03058 4.28125-4.3125 4.28125-3.45426 0-4.0625-2.58784-4.0625-4.28125v-10.34375c0-.56384.42286-.92643.8125-1.125h-3.90625zm14.96875 0c.56385.24727.85338.58277 1.125.875.29223.39338.28125.44441.28125 1.15625v13.53125c0 .53575-.25785.8727-.625 1.09375h2.59375c-.44022-.22105-.6875-.558-.6875-1.09375v-12.84375c0 .24352 11.71875 14.40625 11.71875 14.40625v-16c0-.56384.26475-.92643.65625-1.125h-2.53125c.36715.19857.625.56116.625 1.125v10.8125l-9.65625-11.9375zm17.46875 0c.3915.19856.65625.56302.65625 1.125v14.4375c0 .53574-.26475.87271-.65625 1.09375h3.625c-.36716-.22104-.625-.55801-.625-1.09375v-14.4375c0-.56198.25784-.92644.625-1.125zm4.96875 0c.80924.29598 1.01337.69671 1.28125 1.1875.41773.90478 6.71875 16.09375 6.71875 16.09375s5.70411-15.1384 6.09375-16.09375c.29222-.6369.23809-.77164.875-1.1875h-2.6875c.59007.24727.62542.5993.40625 1.1875 0 .0974-4.3125 11.625-4.3125 11.625s-4.3282-11.27075-4.375-11.34375c-.17421-.61443-.16815-1.22148.46875-1.46875zm15.96875 0c.39338.19669.6875.56115.6875 1.125v14.4375c0 .58632-.30978.87271-.75 1.09375h9.84375l.53125-2.71875c-.90478 1.54168-1.85685 1.53125-4.5 1.53125-1.15392.0225-2.30613-.10565-2.84375-.15625v-7.21875h4c.34093 0 .75137.3934.875.6875v-2.65625c-.12363.29784-.53407.6875-.875.6875h-4v-5.53125s3.75606.0312 4.21875.0312c1.05277 0 1.57358.31303 2.0625.875l-.0625-2.1875h-9.1875zm11.5625 0c.3709.19669.6875.56116.6875 1.125v14.4375c0 .53575-.3166.8727-.6875 1.09375h3.65625c-.36903-.22105-.6875-.558-.6875-1.09375v-6.59375h1.4375c1.27194 0 1.76747 1.05154 2.40625 2.03125.85795 1.37121 1.7468 2.72298 3 4.5625.36716.5114 1.04277 1.15625 2 1.15625l2.5-.0625s-1.04736-.38055-1.5625-.96875c-1.07525-1.15204-3.6875-5.625-3.6875-5.625-.36903-.53949-1.04874-1.57213-2.375-1.84375 1.52108-.12364 3.875-1.4781 3.875-4.125 0-1.54168-1.04084-4.09375-5.9375-4.09375zm25.9375 0c.39338.19856.65625.56302.65625 1.125v14.4375c0 .53574-.26287.87271-.65625 1.09375h3.625c-.36716-.22104-.625-.55801-.625-1.09375v-14.4375c0-.56198.25784-.92644.625-1.125zm5.03125 0v2.3125c.22292-.39151.66555-.96875 1.25-.96875 0 0 2.19547-.15625 4.03125-.15625v14.375c0 .53575-.20914.8727-.625 1.09375h3.625c-.39338-.22105-.65625-.558-.65625-1.09375v-14.375c1.79082 0 4 .15625 4 .15625.63503.0487 1.03772.57724 1.28125.96875l-.0312-2.3125h-12.875zm13.4375 0c.68374.3428.98162.5993 1.375 1.1875l4.65625 7.6875v6.6875c0 .58632-.51475.87271-.90625 1.09375h4.1875c-.44209-.22104-.90625-.55801-.90625-1.09375v-6.78125l3.96875-7.4375c.29222-.59007.72754-1.04591 1.4375-1.34375h-3.25c.68374.19856.87405.52812.53125 1.1875l-3.34375 6.375-3.4375-6.03125c-.6369-1.15392-.15572-1.28399.40625-1.53125zm38.375 0c.39151.19669.6875.56115.6875 1.125v14.4375c0 .58633-.24728.87271-.6875 1.09375h3.71875c-.44209-.22104-.71875-.50742-.71875-1.09375l.0312-7.46875h4.0625c.34093 0 .72574.39527.84375.6875v-2.65625c-.11801.2941-.50282.6875-.84375.6875h-4.0625l-.0312-5.59375s4.10304.0431 4.6875.0937c1.20074 0 1.75094.35117 2.09375.9375v-2.25h-9.78125zm-9.28125.8125c3.16203 0 5.17 3.02381 5.125 7.75 0 4.40774-1.9398 7.1875-5.0625 7.1875-2.59631 0-5.25-2.41628-5.25-7.78125 0-4.47893 2.0648-7.15625 5.1875-7.15625zm-68.6875.1875c2.59445 0 3.28125 2.03545 3.28125 3.1875 0 2.57196-1.82549 3.5625-3.6875 3.5625-.6369 0-1.4375-.0625-1.4375-.0625v-6.625s.74041-.0625 1.84375-.0625zm-181.15625 9.375c-3.40368 0-6.45691.9906-9.15625 2.96875-2.69935 1.9744-4.0625 4.73835-4.0625 8.3125 0 2.54949.76077 4.73541 2.25 6.5 1.48923 1.7646 3.82928 3.44589 7.0625 5.0625 4.46768 2.21605 7.38815 3.82283 8.75 4.84375 1.35623 1.01904 2.03125 2.90692 2.03125 5.625 0 2.08679-.67502 4.03607-2.03125 5.84375-1.36185 1.80581-3.56225 2.6875-6.625 2.6875-3.10584 0-5.59738-1.00065-7.46875-3.03125-1.87324-2.02497-3.26458-4.4702-4.15625-7.34375l.1875 9.53125c2.25351 1.18577 4.20466 2.06244 5.84375 2.65625 1.63721.59195 3.65036.875 6.03125.875 3.61911 0 6.85771-1.21167 9.75-3.65625 2.89229-2.44459 4.34375-5.56167 4.34375-9.34375 0-2.71807-.54039-4.86398-1.625-6.4375-1.08273-1.56978-2.36635-2.78894-3.8125-3.65625-1.44614-.87293-3.64841-2.04203-6.625-3.53125-3.48798-1.74212-5.78733-3.14598-6.9375-4.1875-1.14455-1.04527-1.75-2.50738-1.75-4.375 0-1.65408.60545-3.17009 1.75-4.59375 1.15017-1.42367 2.9179-2.15625 5.34375-2.15625 2.76304 0 5.07796.88042 6.90625 2.65625 1.82828 1.77959 2.96919 3.67121 3.4375 5.625l-.3125-8.40625c-2.46894-1.64097-5.51151-2.46875-9.125-2.46875zm101.59375 0-7.8125 1.53125c.76616.29598 1.32596.57528 1.6875.875.36154.29597.5625.84701.5625 1.65625v37.5c0 1.01717-.54917 1.81055-1.65625 2.40625h9c-.67999-.38402-1.14961-.7472-1.40625-1.09375-.25476-.33718-.375-.78927-.375-1.34375v-20.6875c.68186-.89354 1.65305-1.65312 2.90625-2.3125 1.25508-.65938 2.61449-1 4.0625-1 2.46519 0 4.20285.64811 5.25 1.96875 1.03965 1.32251 1.5625 3.07891 1.5625 5.25v16.78125c0 .97971-.57045 1.79872-1.71875 2.4375h8.8125c-.67998-.42523-1.13207-.74524-1.34375-1-.21355-.25663-.34375-.72251-.34375-1.40625v-18.875c0-2.80425-.89924-4.98208-2.75-6.53125-1.85077-1.54918-4.13376-2.34375-6.8125-2.34375-2.93537 0-6.13515 1.53159-9.625 4.5625zm-19.28125 8.71875-8.34375 8.53125h2.75v18.0625c0 2.89041.82217 5.14216 2.46875 6.78125 1.64096 1.63722 3.79998 2.4375 6.4375 2.4375 1.6597 0 3.14998-.49781 4.46875-1.5 1.31689-1.0078 1.96875-1.94459 1.96875-2.84375-.68373.59569-1.24857 1.02462-1.71875 1.28125-.46644.25851-1.26979.375-2.375.375-3.87012 0-5.8125-2.20602-5.8125-6.625v-17.96875h6.71875l2.21875-2.65625h-8.78125zm156 0-8.3125 8.53125h2.71875v18.0625c0 2.89041.82592 5.14216 2.46875 6.78125 1.64471 1.63722 3.79998 2.4375 6.4375 2.4375 1.65782 0 3.15186-.49781 4.46875-1.5 1.32064-1.0078 1.96875-1.94459 1.96875-2.84375-.68186.59569-1.24856 1.02462-1.71875 1.28125-.46831.25851-1.26979.375-2.375.375-3.87012 0-5.8125-2.20602-5.8125-6.625v-17.96875h6.71875l2.21875-2.65625h-8.78125zm-209.0625 5.09375c-2.76678 0-5.23704.75388-7.40625 2.21875-2.16922 1.46675-3.81858 3.37975-4.96875 5.78125-1.14643 2.40337-1.71875 4.88614-1.71875 7.4375 0 3.9488 1.17471 7.47293 3.53125 10.59375 2.36216 3.1227 5.84431 4.6875 10.4375 4.6875 2.71995 0 5.15699-.71385 7.28125-2.15625 2.12988-1.44801 3.77736-3.38665 4.96875-5.8125 1.19325-2.41836 1.78125-4.85106 1.78125-7.3125 0-2.63752-.50344-5.13094-1.5-7.46875-1.00219-2.33593-2.56137-4.23139-4.6875-5.71875-2.12988-1.48735-4.70095-2.25-7.71875-2.25zm22.75 0-7.71875 1.53125c1.44427.46832 2.15625 1.32804 2.15625 2.5625v14.65625c0 4.20918 1.0463 7.26428 3.09375 9.15625 2.04746 1.89198 4.24411 2.8125 6.625 2.8125 2.74618 0 5.26088-.91234 7.53125-2.75l1.125-3.71875c-.96097.91977-1.66837 1.43548-2.59375 1.9375-1.01904.55261-2.22194.84375-3.625.84375-1.87324 0-3.43243-.74135-4.6875-2.1875-1.25507-1.44614-1.90625-3.46618-1.90625-6.0625zm18.78125 0-7.65625 1.53125c.67999.17047 1.22038.44407 1.625.78125.40275.34093.59375.9308.59375 1.78125v19.46875l.0937 2.75c.007-.0112.0182-.0219.0312-.0312 0 1.27194.18657 2.19118.53125 2.78125.33906.59757.9308 1.14673 1.78125 1.65625l5.53125-2.03125c-1.7009-.25101-2.53125-1.45765-2.53125-3.625v-25.0625zm67.09375 0c-3.44489 0-6.78995 1.07449-10.0625 3.1875l.125 7.875c.89541-2.66375 2.03444-4.76895 3.4375-6.3125 1.40305-1.54355 3.3279-2.3125 5.75-2.3125 1.87137 0 3.26084.54039 4.15625 1.625.89166 1.08461 1.3125 2.37768 1.3125 3.90625 0 1.61474-.0795 2.51704-.25 2.6875-.55448.64065-1.34225 1.13156-2.40625 1.46875-1.064.33905-2.87737.88319-5.40625 1.625-2.53075.74555-4.25463 1.4043-5.1875 2-2.84921 1.69903-4.28125 4.11291-4.28125 7.21875 0 1.74212.64122 3.46411 1.9375 5.1875 1.29629 1.71776 3.20861 2.5625 5.71875 2.5625 2.96347 0 5.68169-.98439 8.15625-3l1.15625-3.375c-1.98751 1.82641-4.20171 2.78125-6.6875 2.78125-1.44427 0-2.63772-.47712-3.53125-1.40625-.89354-.92538-1.3125-2.22842-1.3125-3.875 0-1.47799.41896-2.6452 1.3125-3.53125.89353-.88604 2.22288-1.66751 3.96875-2.34375 3.6547-1.13518 5.92084-1.94356 6.8125-2.40625v10.25c-.0169.0169.0806 2.23186.0937 2.21875.0393 1.50796.20028 2.51236.5 3.03125.29785.51514.86455 1.07248 1.71875 1.71875l4.93755-2.1875c-.89167-.17047-1.43393-.44978-1.625-.875-.1892-.42336-.3125-1.12963-.3125-2.0625v-17.0625c0-3.31002-1.01317-5.53989-3.0625-6.75-2.04933-1.21199-4.37431-1.84375-6.96875-1.84375zm21.1875 0-7.78125 1.53125c.67812.17046 1.2329.44219 1.65625.78125.42336.34093.625.9308.625 1.78125v23.65625c0 .97409-.55103 1.77122-1.65625 2.40625h8.9375c-.68186-.42148-1.15149-.76091-1.40625-1.0625-.25289-.29598-.375-.74619-.375-1.34375v-20.875c1.7852-2.16547 3.92736-3.25 6.4375-3.25 4.42273 0 6.625 2.27423 6.625 6.78125v17.34375c0 .97409-.54917 1.77122-1.65625 2.40625h8.90625c-.55448-.33718-.97464-.66597-1.25-1.03125-.27537-.36341-.40625-.82052-.40625-1.375v-19.15625c0-.42523-.0426-.72582-.125-.9375 1.91446-2.68061 4.19439-4.03125 6.875-4.03125 2.33781 0 4.02788.67059 5.09375 1.96875 1.06213 1.29629 1.59375 2.97946 1.59375 5.0625v17.09375c0 .89166-.59174 1.6888-1.78125 2.40625h8.875c-.55448-.33718-.97276-.66597-1.25-1.03125-.2735-.35966-.40625-.81865-.40625-1.375v-19c0-2.76678-.97306-4.90519-2.90625-6.4375-1.93319-1.52857-4.10353-2.3125-6.53125-2.3125-1.91258 0-3.78607.54789-5.59375 1.625-1.80956 1.07524-3.30862 2.41021-4.5 3.96875-.59757-1.77209-1.71531-3.15841-3.375-4.125-1.66344-.97034-3.44301-1.46875-5.3125-1.46875-1.87137 0-3.53137.44707-5 1.3125-1.463.8617-2.90944 1.88611-4.3125 3.0625zm48.15625 0-7.59375 1.6875c1.40306.42335 2.09375 1.29628 2.09375 2.65625v37.96875c0 1.1483-.54917 1.97106-1.65625 2.4375h8.875c-1.10896-.51514-1.65625-1.33042-1.65625-2.4375v-35.65625c.72307-.88979 1.64479-1.62306 2.75-2.21875 1.10334-.59569 2.3569-.90625 3.71875-.90625 2.16734 0 4.12982.90604 5.9375 2.6875 1.80956 1.78145 2.71875 4.85222 2.71875 9.21875 0 4.02934-.8197 7.15836-2.5 9.40625s-3.9633 3.375-6.8125 3.375c-2.08305 0-3.04731-.43643-4.84375-1.96875l1.46875 3.9375c1.29816.36341 2.68762.53125 4.15625.53125 4.46581 0 8.00995-1.61428 10.625-4.84375 2.61692-3.2276 3.90625-6.77617 3.90625-10.6875 0-2.46332-.39384-4.69939-1.15625-6.71875-.76616-2.01748-1.73803-3.63176-2.96875-4.84375-1.23447-1.21199-2.5657-2.12493-3.96875-2.71875-1.40306-.59569-2.85639-.90625-4.34375-.90625-1.87137 0-3.57395.42074-5.125 1.21875-1.55479.79425-2.77455 1.68157-3.625 2.6875zm54.90625 0c-2.76491 0-5.23703.75388-7.40625 2.21875-2.16922 1.46675-3.81858 3.37975-4.96875 5.78125-1.15017 2.40337-1.71875 4.88614-1.71875 7.4375 0 3.9488 1.17096 7.47293 3.53125 10.59375 2.36029 3.1227 5.84244 4.6875 10.4375 4.6875 2.71995 0 5.12199-.71385 7.25-2.15625 2.12425-1.44801 3.80674-3.38665 5-5.8125 1.18764-2.41836 1.78125-4.85106 1.78125-7.3125 0-2.63752-.50531-5.13094-1.5-7.46875-1.00593-2.33593-2.56324-4.23139-4.6875-5.71875-2.12426-1.48735-4.70283-2.25-7.71875-2.25zm22.78125 0-7.6875 1.40625c1.40681.51327 2.125 1.41369 2.125 2.6875v23.65625c0 1.01904-.52788 1.81431-1.59375 2.40625h8.8125c-.55823-.33718-.97838-.66597-1.25-1.03125-.27911-.36341-.40625-.82052-.40625-1.375v-20.6875c.76803-.93663 1.73734-1.73623 2.90625-2.375 1.1689-.63878 2.34174-.96875 3.53125-.96875 4.50889 0 6.78125 2.4665 6.78125 7.40625v16.625c0 1.01905-.55291 1.81243-1.65625 2.40625h8.71875c-.71933-.54886-1.18393-.93274-1.375-1.1875-.19111-.25663-.28125-.6624-.28125-1.21875v-18.875c0-1.8695-.44145-3.45559-1.3125-4.75-.87294-1.30003-2.04576-2.31005-3.53125-3.03125-1.4911-.72307-3.0221-1.09375-4.59375-1.09375-1.74586 0-3.44282.50965-5.125 1.46875-1.68029.9591-3.03971 1.98479-4.0625 3.09375zm-256.21875 2.34375c1.86949-.0412 3.42178.51859 4.65625 1.6875 1.23072 1.16328 2.18249 2.66175 2.84375 4.53125.65563 1.86575 1.06199 4.02102 1.1875 6.4375.12738 3.73337-.5025 6.8342-1.84375 9.3125-1.34124 2.48392-3.30185 3.78074-5.9375 3.90625-2.51015.12925-4.54083-1.01915-6.09375-3.4375-1.55291-2.41836-2.40387-5.42525-2.53125-9.03125-.12738-3.68841.46436-6.81053 1.78125-9.375 1.32064-2.56634 3.29997-3.90761 5.9375-4.03125zm232.84375 0c1.8695-.0412 3.42178.51859 4.65625 1.6875 1.2326 1.16328 2.18249 2.66175 2.84375 4.53125.6575 1.86575 1.06199 4.02102 1.1875 6.4375.12925 3.73337-.47501 6.8342-1.8125 9.3125-1.34125 2.48392-3.33684 3.78074-5.96875 3.90625-2.51202.12925-4.54083-1.01915-6.09375-3.4375-1.55104-2.41836-2.40199-5.42525-2.53125-9.03125-.12925-3.68841.46248-6.81053 1.78125-9.375 1.31501-2.56634 3.29997-3.90761 5.9375-4.03125z" fill="#005882" transform="translate(-105.41741 -491.06748)"/></svg>