<?xml version="1.0" encoding="UTF-8" standalone="no"?>
<!-- Generator: Adobe Illustrator 19.2.1, SVG Export Plug-In . SVG Version: 6.00 Build 0)  -->

<svg
   version="1.1"
   id="layer"
   x="0px"
   y="0px"
   viewBox="0 0 599.79999 127.2"
   xml:space="preserve"
   width="599.79999"
   height="127.2"
   xmlns="http://www.w3.org/2000/svg"
   xmlns:svg="http://www.w3.org/2000/svg"><defs
   id="defs13" />
<style
   type="text/css"
   id="style2">
	.st0{fill:#00557F;}
</style>
<path
   class="st0"
   d="m 188.8,32.9 c 0,7.4 -6,12.7 -14.4,12.7 -8.3,0 -14.4,-5.3 -14.4,-12.7 V 10.5 h 6 v 22.4 c 0,4.5 3.4,7.5 8.4,7.5 5.1,0 8.4,-2.9 8.4,-7.5 V 10.5 h 6 z m 10.6,-9.6 v -3 h -5.5 v 24.6 h 5.5 V 27.5 c 2.3,-1.9 5,-3 7.2,-3 2.5,0 4.5,1.5 4.5,4.7 v 15.6 h 5.5 v -16 c 0,-6.3 -3.9,-9.2 -8.4,-9.2 -2.9,0 -6.2,1.2 -8.8,3.7 z M 222,44.9 h 5.5 V 20.3 H 222 Z m 6.1,-31.4 c 0,-1.8 -1.5,-3.2 -3.3,-3.2 -1.8,0 -3.3,1.5 -3.3,3.2 0,1.8 1.5,3.2 3.3,3.2 1.8,0 3.3,-1.4 3.3,-3.2 m 27.9,6.8 h -5.9 l -6.9,18.6 -6.9,-18.6 h -5.9 l 9.8,24.6 h 5.9 z m 6.6,9.8 c 0.7,-3.4 3,-5.6 6.4,-5.6 3.6,0 5.4,2.2 5.9,5.6 h -12.3 m 17.9,2.7 c 0,-7.6 -4,-13.2 -11.7,-13.2 -7.3,0 -12.1,5.8 -12.1,13 0,7.2 4.9,13 12.2,13 3.2,0 6.7,-1.2 9.5,-3.3 l -1.3,-3.6 c -2.7,1.4 -5.3,2.1 -7.8,2.1 -3.7,0 -6.2,-2.5 -6.7,-6.4 0,-0.1 0,-0.3 -0.1,-0.4 h 18 c 0,-0.4 0,-0.8 0,-1.2 m 20,-13.2 c -0.2,0 -0.4,0 -0.7,0 -3.1,0 -6.7,1.4 -9.6,4.1 v -3.4 h -5.5 v 24.6 h 5.5 V 28.3 c 2.6,-2.2 5.7,-3.4 8.5,-3.4 0.3,0 0.5,0 0.8,0 l 1,-5.3 m 1.9,7.6 c 0,4.3 2.8,5.7 9.1,7.4 3.3,0.9 5.5,1.2 5.5,3.3 0,2 -2.3,3.2 -5.3,3.2 -2.9,0 -6,-1.1 -7.6,-3.1 l -2.3,3.6 c 2,2.5 6.1,3.9 10.1,3.9 4.9,0 10.6,-2.1 10.6,-7.8 0,-5.6 -5.4,-6.8 -9.4,-7.8 -4.1,-1.1 -5.2,-1.6 -5.1,-3.1 0,-1.9 1.9,-2.9 4.5,-2.9 2.6,0 5.4,0.8 6.9,2.4 l 2.3,-3.6 c -2.4,-2.3 -6.2,-3.2 -9.4,-3.2 -5,0.1 -9.9,2.1 -9.9,7.7 z m 24.1,17.7 H 332 V 20.3 h -5.5 z m 6.1,-31.4 c 0,-1.8 -1.5,-3.2 -3.3,-3.2 -1.8,0 -3.3,1.5 -3.3,3.2 0,1.8 1.5,3.2 3.3,3.2 1.8,0 3.3,-1.4 3.3,-3.2 m 19.8,26.7 c -1.1,0.4 -2.3,0.7 -3.5,0.7 -1.9,0 -3.4,-0.8 -3.4,-3.2 V 24.8 h 7 v -4.4 h -7 V 13.6 H 340 v 6.8 h -0.2 l -4.6,0.9 v 3.5 h 4.8 v 13.3 c 0,5.5 3.6,7.6 7.5,7.6 2.1,0 4.3,-0.6 6.2,-1.7 z m 29.3,-19.9 h -5.8 l -7.1,17.8 -7.5,-17.8 h -6 l 10.8,24.5 -3.9,9.9 h 5.1 z m 19.4,12.3 c 0,-4.7 2.6,-8 7,-8 4.3,0 6.9,3.3 6.9,8 0,4.8 -2.6,8 -6.9,8 -4.3,0 -7,-3.3 -7,-8 m 19.6,0 c 0,-7.2 -5,-13 -12.6,-13 -7.6,-0.1 -12.6,5.7 -12.6,13 0,7.2 5,13 12.6,13 7.6,0 12.6,-5.8 12.6,-13 m 12.2,-13.7 c 0,-3 1.4,-4.7 3.8,-4.7 1.6,0 3.3,0.4 5.2,1.1 l 1.3,-3.8 c -2.5,-1.3 -5.1,-2 -7.4,-2 -4.8,0 -8.5,3 -8.5,9.7 v 1.1 h -0.1 l -4.6,0.9 v 3.5 h 4.8 v 20.2 h 5.5 V 24.7 h 7 v -4.4 h -7 V 18.9 M 148.2,61.5 c -4.8,-4.3 -11.8,-7.1 -20.3,-7.1 -11.1,0 -21.4,4.8 -21.5,17.299997 0,9.9 6.3,12.7 19.6,16.4 7.8,2.1 11.2,3 11.1,7.2 0,4 -3.5,6.700003 -9.7,6.700003 -5.7,0 -12.3,-2.400003 -15.8,-6.700003 L 104.9,102.8 c 4.7,6 13.9,9.5 22.4,9.5 9.9,0 21.9,-4.9 21.9,-17.400003 -0.1,-12 -11.1,-14.7 -19.5,-16.9 -9.8,-2.6 -11.3,-3.7 -11.2,-6.8 C 118.8,66.5 122.4,64.8 127.7,64.8 c 5.8,0 10.6,1.999997 13.9,4.599997 L 148.2,61.5 m 16.3,29.799997 c -0.1,-6.7 3.7,-11.5 9.9,-11.5 6.1,0 9.9,4.7 9.9,11.5 0,6.8 -3.8,11.500003 -9.9,11.500003 -6,0 -9.9,-4.800003 -9.9,-11.500003 m 31.2,0 c 0,-11.6 -8.3,-21 -21.2,-21 -12.8,-0.1 -21.2,9.3 -21.2,21 C 153.3,102.9 161.7,112.3 174.5,112.3 c 12.8,0 21.2,-9.4 21.2,-21.000003 m 42.6,-19.9 h -11.1 v 27.3 C 224.1,101.3 220.4,102.8 217.2,102.8 c -3.6,0 -6,-2.3 -6,-6.800003 v -24.5 h -11.1 v 25.9 C 200.1,107.7 206.2,112.3 213.5,112.3 c 4.6,0 9.6,-2 13.7,-5.9 v 4.8 h 11.1 z M 270.8,102.1 c -1.8,0.6 -3.7,1 -5.4,1 -3,0 -5.1,-1.3 -5.1,-5.100003 v -18 H 271 v -8.6 H 260.3 V 60.6 H 249.2 V 71.399997 H 249 l -7.4,1.6 v 7 h 7.6 v 19.4 C 249.2,108.7 255.3,112.2 262.1,112.2 c 3.7,0 7.6,-1 11,-2.7 z M 288.2,76.299997 V 55.6 h -11.1 v 55.7 h 11.1 V 83.999997 c 3.1,-2.6 6.9,-4.1 10,-4.1 3.8,0 6.7,2.1 6.7,6.8 V 111.2 H 316 V 85.299997 c 0,-10.3 -6.3,-14.9 -13.6,-14.9 -4.8,-0.1 -10.1,2 -14.2,5.9 z m 61.8,21.9 C 346.9,101.3 342.8,102.9 339.7,102.9 c -5.3,0 -8.3,-4.600003 -8.3,-11.600003 0,-7 3.2,-11.6 8.3,-11.6 3.1,0 7.2,1.6 10.3,4.7 v 13.8 m 11.1,-26.8 H 350 v 4.3 c -4,-3.7 -8.5,-5.4 -12.8,-5.4 -10.1,0 -17.2,9.3 -17.2,21 C 320,103 327.1,112.3 337.2,112.3 c 4.3,0 8.8,-1.6 12.8,-5.4 v 4.3 h 11.1 z m 42.4,5.5 c -2.3,-4.5 -6.5,-6.5 -11.3,-6.5 -4.6,0 -9.6,2 -13.6,5.9 v -4.8 H 367.5 V 111.3 h 11.1 V 83.899997 c 2.9,-2.5 6.4,-4 9.3,-4 3.5,0 6.2,2.1 6.2,6.8 V 111.2 h 11.1 V 85.299997 c 0,-0.6 0,-1.3 -0.1,-1.8 3,-2.3 6.4,-3.6 9.2,-3.6 3.6,0 6.3,2.1 6.3,6.9 V 111.3 h 11.1 V 85.399997 c 0,-10.3 -6,-14.9 -13.1,-14.9 -5,-0.2 -10.7,2.1 -15.1,6.4 z m 65.1,14.4 c 0,7.5 -3.5,11.600003 -8.4,11.700003 -3.3,0 -7.2,-1.8 -10.4,-5.100003 v -13.4 c 3.2,-3.2 7.2,-4.8 10.4,-4.8 5.3,0 8.4,4.8 8.4,11.6 m -18.8,-15.6 v -4.3 H 438.7 V 127.1 h 11.1 v -20 c 3.8,3.5 8.4,5.2 12.6,5.2 9.8,0 17.5,-8.4 17.5,-21.000003 0,-11.7 -7,-21 -17.4,-21 -4.4,0 -8.9,1.9 -12.7,5.4 z M 510.9,102.1 c -1.8,0.6 -3.7,1 -5.4,1 -3,0 -5.1,-1.3 -5.1,-5.100003 v -18 h 10.7 v -8.6 H 500.4 V 60.6 H 489.2 V 71.399997 H 489 l -7.4,1.6 v 7 h 7.6 v 19.4 C 489.2,108.7 495.3,112.2 502.1,112.2 c 3.7,0 7.6,-1 11,-2.7 z m 14.7,-10.800003 c -0.1,-6.7 3.7,-11.5 9.9,-11.5 6.1,0 9.9,4.7 9.9,11.5 0,6.8 -3.8,11.500003 -9.9,11.500003 -6.1,0 -9.9,-4.800003 -9.9,-11.500003 m 31.1,0 c 0,-11.6 -8.3,-21 -21.2,-21 -12.8,-0.1 -21.2,9.3 -21.2,21 C 514.3,102.9 522.7,112.3 535.5,112.3 c 12.9,0 21.2,-9.4 21.2,-21.000003 m 15.4,-15 v -4.8 H 561 V 111.3 h 11.1 V 84.099997 c 3.3,-2.6 7.2,-4.1 10.2,-4.1 3.6,0 6.4,2.1 6.4,6.8 V 111.3 h 11.1 V 85.399997 c 0,-10.3 -6.3,-14.9 -13.6,-14.9 -4.5,-0.2 -9.8,1.8 -14.1,5.8 z"
   id="path4" />
<path
   class="st0"
   d="m 94.100004,26.2 c -0.1,0 -1.3,1 -2.6,1.3 -0.1,1 -0.6,2 -1.5,2.7 -0.7,0.5 -1.4,0.7 -2.2,0.7 -0.3,0 -0.6,0 -0.9,-0.1 -0.7,1.2 -2,2 -2,2.1 l -0.2,0.2 -0.2,-0.2 c -0.1,0 -1.3,-0.9 -2.1,-2.1 -0.3,0.1 -0.6,0.1 -0.8,0.1 -0.7,0 -1.5,-0.2 -2.2,-0.7 -0.9,-0.7 -1.4,-1.6 -1.5,-2.7 -1.3,-0.3 -2.6,-1.3 -2.6,-1.3 l -0.2,-0.2 0.1,-0.3 c 0,-0.1 0.5,-1.5 1.3,-2.6 -0.5,-0.9 -0.7,-2 -0.4,-3 0.3,-0.9 1,-1.7 1.8,-2.1 0.1,0 0.2,-0.1 0.3,-0.1 -0.1,-1.4 0.4,-2.8 0.4,-2.9 l 0.1,-0.3 h 0.3 c 0.1,0 1.6,0 2.9,0.5 0.7,-0.8 1.7,-1.3 2.8,-1.3 1.1,0 2.1,0.5 2.8,1.3 1.3,-0.5 2.8,-0.5 2.9,-0.5 h 0.3 l 0.1,0.3 c 0,0.1 0.5,1.5 0.4,2.9 0.1,0 0.2,0.1 0.2,0.1 0.9,0.4 1.5,1.2 1.8,2.1 0.3,1.1 0.2,2.2 -0.4,3 0.9,1.1 1.3,2.5 1.4,2.6 l 0.1,0.3 z m -5.6,53.499997 c -3,9.4 -7.4,17.5 -13.1,24.100003 C 68.6,111.8 59.8,117.7 49.4,121.3 39,117.7 30.3,111.8 23.4,103.8 17.7,97.199997 13.3,88.999997 10.2,79.699997 6,66.899997 5.5,55.1 5.4,50.8 c 0.8,-0.3 1.9,-0.7 3.2,-1.2 0.9,2.7 2.9,5.2 6.2,7.5 4.4,3.1 9.1,4.4 9.3,4.5 0,0 9.6,2.8 15.3,4.5 3.6,1.199997 3.5,3.799997 2.9,5.699997 0,0.1 -0.1,0.2 -0.1,0.3 -0.1,0.2 -0.2,0.5 -0.3,0.7 0,0 0,0 0,0 -0.1,0.2 -0.2,0.5 -0.3,0.7 -0.2,-0.2 -0.5,-2.3 -4.5,-4.3 -4,-2 -10,-1.1 -10.7,-0.7 -0.3,0.2 -0.4,0.3 -0.1,0.6 0.2,0.1 0.4,0.2 0.5,0.4 0.9,1 0.8,3.2 3.6,6.1 0.9,0.8 1.8,1.4 2.8,1.9 4,1.9 5.8,1 6.5,0.9 0,0.1 -0.1,0.3 -0.1,0.4 -6.1,10.7 -8.5,19.9 -8.8,27.600003 l 1.2,1 c 2.4,2 4.9,3.8 7.6,5.5 v 0 l 2.2,1.3 c 2.4,1.3 4.9,2.4 7.5,3.4 7.2,-2.7 13.5,-6.5 18.9,-11.5 0,0 0.7,-0.7 1.1,-1.1 -0.8,-0.1 -1.6,-0.1 -2.4,-0.2 -10.3,-0.4 -13.3,-4.5 -11.5,-10.700003 0.1,-0.2 0.4,-0.8 0,-1.2 -0.3,-0.3 -0.9,-0.1 -1.1,0 -10.6,5 -13.6,20.000003 -13.6,20.000003 0,0 -0.4,-11.9 7.9,-19.900003 8.3,-8 15.3,-6.4 15.6,-6.4 3.4,0.8 4.1,-1.2 4.3,-2.8 0,-0.2 0.1,-0.4 0.3,-0.6 1.6,-1.1 3.3,-5.4 1.5,-7 -0.9,-0.8 -4.3,-1.7 -5.2,-2 -0.8,-0.3 -1.5,-0.5 -2.2,-0.9 -0.4,-0.2 -0.8,-0.5 -1,-1 -0.6,-1.8 -2.3,-2.7 -2.7,-3 3.5,-0.8 7.3,-2.799997 11.3,-5.899997 1.2,-1 2.2,-2 3.000004,-3.1 0.8,-0.9 0.8,-1.8 2.2,-2.4 2.9,-1.4 2.8,-2.9 2.3,-3.4 -0.5,-0.5 -2.3,0.2 -2.5,0.4 0.1,-0.8 0,-1.7 -0.1,-2.5 0,0 0,-0.1 0,-0.1 0,-0.1 0,-0.1 0,-0.2 0,-0.1 0,-0.2 -0.1,-0.4 0,0 0,-0.1 0,-0.1 -0.6,-2.9 -2.2,-5.4 -3.900004,-7.2 10.500004,2 18.300004,5 21.500004,6.3 0.2,4.5 -0.2,16.199997 -4.4,28.999997 M 15.6,54.3 C 13.5,53 11.9,51 11.1,48.7 c 1.3,-0.4 2.8,-0.9 4.4,-1.4 0,0 0,0 0,0 -0.4,1.9 -0.6,4.6 0.1,7 M 4.5,26.2 4.3,26 4.4,25.7 C 4.4,25.6 4.9,24.2 5.7,23.1 5.2,22.2 5,21.1 5.3,20.1 5.6,19.2 6.3,18.4 7.1,18 7.2,18 7.3,17.9 7.4,17.9 7.3,16.5 7.8,15.1 7.8,15 l 0.1,-0.3 h 0.3 c 0.1,0 1.6,0 2.9,0.5 0.7,-0.8 1.7,-1.3 2.8,-1.3 1.1,0 2.1,0.5 2.8,1.3 1.3,-0.5 2.8,-0.5 2.9,-0.5 h 0.3 L 20,15 c 0,0.1 0.5,1.5 0.4,2.9 0.1,0 0.2,0.1 0.2,0.1 0.9,0.4 1.5,1.2 1.8,2.1 0.3,1.1 0.2,2.2 -0.4,3 0.9,1.1 1.3,2.5 1.4,2.6 l 0.1,0.3 -0.2,0.2 c -0.1,0 -1.3,1 -2.6,1.3 -0.1,1 -0.6,2 -1.5,2.7 -0.7,0.5 -1.4,0.7 -2.2,0.7 -0.3,0 -0.6,0 -0.9,-0.1 -0.7,1.2 -2,2 -2,2.1 l -0.2,0.2 -0.2,-0.2 c -0.1,0 -1.3,-0.9 -2.1,-2.1 -0.3,0.1 -0.6,0.1 -0.8,0.1 -0.7,0 -1.5,-0.2 -2.2,-0.7 C 7.7,29.5 7.2,28.6 7.1,27.5 5.8,27.2 4.6,26.3 4.5,26.2 m 48,30.8 v 0 c 0.1,-0.2 2.1,-4.5 3.4,-7.6 1.1,-2.8 -1.1,-5.6 -2.6,-7.1 5.1,0.2 9.9,0.7 14.4,1.4 0.6,0.6 1.3,1.1 1.4,1.6 -4.1,-0.4 -6.3,0.5 -6.1,2 0.1,0.6 1,0.8 1.8,0.6 0.7,-0.1 3.8,-0.4 6.1,1.3 1,0.8 1.7,2.1 1.8,3.9 0,0 0,0.1 0,0.1 0,0.2 0,0.3 0,0.5 0.1,2.8 -1.2,5.3 -3.8,7.3 -8.4,6.599997 -13.3,5.699997 -14,5.5 -2.3,-1.4 -3.4,-3.3 -3.4,-5.8 0.2,-1.9 1,-3.6 1,-3.7 m -4.1,-8.4 c 0.7,0.3 2.6,1.5 3.1,2.8 0.2,0.5 -0.2,1.1 -0.4,1.6 -0.7,1.4 -1.2,2.6 -1.3,2.7 -0.2,0.3 -1.1,2.3 -1.2,4.9 -0.1,1.7 0.2,3.9 1.8,5.9 -0.2,0 -0.3,0 -0.3,0 -1.5,-0.1 -3,0.1 -3.7,0.199997 -0.7,0 -1,-0.299997 -1.3,-0.699997 -0.9,-1.3 -2.4,-2.5 -4.7,-3.1 -2.8,-0.8 -6.5,-1.8 -9.5,-2.6 0,0 0,0 0,0 -5.9,-1.6 -4.3,-5.1 -5.7,-5 -1.4,0.1 -0.7,2.5 -0.1,3.4 -2.4,-0.5 -3.6,-1.4 -3.6,-1.4 -4.3,-3.5 -4.1,-7.7 -3.2,-10.7 8.1,-2.2 19.1,-4.3 31.3,-4.3 0.1,0 0.3,0 0.4,0 1.4,1.1 4.2,3.8 3.2,6 -0.1,0.2 -0.1,0.3 -0.2,0.5 -1.8,-1.2 -3.6,-1.9 -3.9,-2.1 -0.8,-0.3 -1.5,-0.4 -1.7,0.2 -0.3,0.7 0.3,1.3 1,1.7 M 26.5,12.3 c 0,-0.1 0.1,-0.3 0.2,-0.4 0.1,-0.1 0.3,-0.1 0.4,-0.1 L 28.2,12 V 9.7 c 0,-0.2 0.1,-0.3 0.2,-0.4 0.1,-0.1 0.3,-0.1 0.5,-0.1 l 1,0.3 V 7.8 c 0,-0.4 0.2,-0.8 0.6,-1 0.2,-0.1 0.4,-0.1 0.5,-0.1 0.2,0 0.4,0.1 0.6,0.2 0.2,0.1 0.3,0.2 0.5,0.3 0.8,0.5 1.7,1.1 4.3,1.7 0.7,0.2 1.7,0.3 2.7,0.5 1.7,0.3 3.7,0.7 5.5,1.2 2.2,0.7 3.7,1.5 4.5,2.6 0.2,0.2 0.2,0.4 0.2,0.7 0,-0.2 0.1,-0.5 0.2,-0.7 0.9,-1.1 2.3,-1.9 4.5,-2.6 1.8,-0.5 3.8,-0.9 5.5,-1.2 1,-0.2 2,-0.4 2.7,-0.5 2.6,-0.6 3.5,-1.2 4.3,-1.7 0.2,-0.1 0.3,-0.2 0.5,-0.3 0.2,-0.1 0.4,-0.2 0.6,-0.2 0.2,0 0.4,0 0.5,0.1 0.3,0.2 0.6,0.6 0.6,1 v 1.7 l 1,-0.3 c 0.2,-0.1 0.3,0 0.5,0.1 0.1,0.1 0.2,0.2 0.2,0.4 V 12 l 1.1,-0.2 c 0.1,0 0.3,0 0.4,0.1 0.1,0.1 0.2,0.2 0.2,0.4 v 18.5 c 0,1.8 -1.3,2.5 -4.6,2.3 -11.2,-0.3 -15.4,2.6 -15.4,2.6 0,1 -1.1,1.7 -2.7,1.7 -1.7,0 -2.7,-0.6 -2.7,-1.7 0,0 -4.2,-2.9 -15.4,-2.6 -3.3,0.2 -4.6,-0.6 -4.6,-2.3 V 12.3 Z M 97.000004,9.7 C 96.200004,9.3 75.800004,0 49.3,0 22.8,0 2.4,9.3 1.6,9.7 L 0,10.5 v 42.8 0 C 0.2,59.1 1.1,69.699997 5,81.399997 12.5,104.3 27.6,120.1 48.7,127.1 c 0.3,0.1 0.6,0.1 0.9,0.1 0.3,0 0.6,0 0.9,-0.1 21.1,-7 36.200004,-22.8 43.500004,-45.700003 3.7,-11.6 4.6,-22.199997 4.8,-27.999997 v 0 -0.1 -42.7 z"
   id="path6" />
<path
   class="st0"
   d="m 11.6,18.8 c 0,0 -0.3,-0.4 -0.3,-1.2 0,-1.5 1.2,-2.6 2.6,-2.6 1.5,0 2.6,1.2 2.6,2.6 0,0.8 -0.3,1.2 -0.3,1.2 l -1.1,1.5 C 14.9,20.2 14.6,20.1 14.3,20.1 V 19 c 0,-0.2 -0.2,-0.4 -0.4,-0.4 -0.2,0 -0.4,0.2 -0.4,0.4 v 1.1 c -0.3,0 -0.5,0.1 -0.8,0.2 z m 4.9,2.9 1.1,-0.3 c 0.2,-0.1 0.5,0.1 0.5,0.3 0.1,0.2 0,0.5 -0.3,0.5 l -1.1,0.3 c 0,0.1 0,0.3 0,0.4 0,0.1 0,0.3 0,0.4 l 1.8,0.6 c 0,0 0.5,0.2 1.3,-0.1 1.4,-0.5 2.1,-1.9 1.7,-3.3 -0.2,-0.7 -0.7,-1.2 -1.3,-1.5 -0.6,-0.3 -1.3,-0.4 -2,-0.2 -0.8,0.2 -1.1,0.6 -1.1,0.7 L 16,21.1 c 0.2,0.1 0.3,0.3 0.5,0.6 m 1.1,-3.8 c 0.1,0 0.2,-0.1 0.3,-0.1 0.6,-0.2 1.1,-0.2 1.7,-0.1 0,-0.8 -0.2,-1.6 -0.3,-2.1 -0.4,0 -1.3,0.1 -2.1,0.4 0.3,0.5 0.4,1.1 0.4,1.7 0,0 0,0.1 0,0.2 M 10,17.8 c 0.1,0 0.2,0.1 0.3,0.1 0,-0.1 0,-0.2 0,-0.3 0,-0.6 0.1,-1.2 0.4,-1.7 C 9.9,15.6 9.1,15.6 8.6,15.6 8.5,16 8.3,16.9 8.3,17.7 8.9,17.6 9.4,17.6 10,17.8 m -2,6 c 0.7,0.2 1.2,0.1 1.3,0.1 l 1.8,-0.6 c 0,-0.1 0,-0.3 0,-0.4 0,-0.1 0,-0.3 0,-0.4 L 10,22.2 C 9.8,22.1 9.7,21.9 9.7,21.7 9.8,21.5 10,21.4 10.2,21.4 l 1.1,0.3 c 0.1,-0.3 0.3,-0.5 0.5,-0.7 l -1.1,-1.6 c 0,0 -0.3,-0.4 -1.1,-0.7 C 9.3,18.6 9.1,18.6 8.8,18.6 8.4,18.6 8,18.7 7.6,18.9 7,19.2 6.5,19.8 6.3,20.4 5.9,21.8 6.7,23.3 8,23.8 m 4.9,5 c 0.5,-0.6 0.5,-1.1 0.5,-1.2 v -1.9 c -0.3,-0.1 -0.5,-0.1 -0.8,-0.3 l -0.7,0.9 c -0.1,0.1 -0.2,0.2 -0.3,0.2 -0.1,0 -0.2,0 -0.3,-0.1 -0.2,-0.1 -0.2,-0.4 -0.1,-0.6 l 0.7,-0.9 c -0.2,-0.2 -0.4,-0.4 -0.5,-0.7 l -1.8,0.6 c 0,0 -0.5,0.2 -1,0.8 -0.9,1.2 -0.6,2.8 0.6,3.7 1.2,0.9 2.9,0.7 3.7,-0.5 m 35.3,5.8 V 14 c 0,-0.6 -2.8,-2.5 -9.1,-3.3 C 32.8,9.8 31,7.9 31,7.9 v 22.2 c 1.1,0.9 1.3,0.8 8.5,1.6 7.6,0.9 8.7,2.9 8.7,2.9 m 10.9,-2.9 c 7.3,-0.8 7.5,-0.7 8.5,-1.6 V 7.9 c 0,0 -1.8,1.9 -8.1,2.8 -6.3,0.9 -9.1,2.8 -9.1,3.3 v 20.6 c 0,0 1.1,-2 8.7,-2.9 M 7.8,25.1 C 7.9,25 7.9,24.9 8,24.9 c -0.1,0 -0.2,0 -0.3,-0.1 -0.6,-0.2 -1.1,-0.5 -1.5,-0.9 -0.5,0.6 -0.8,1.4 -1,1.9 0.4,0.2 1.1,0.7 1.9,0.9 0.2,-0.6 0.4,-1.1 0.7,-1.6 m 6.3,4.3 C 14,29.3 14,29.2 13.9,29.2 c 0,0.1 -0.1,0.2 -0.2,0.2 -0.4,0.5 -0.8,0.9 -1.3,1.1 0.5,0.7 1.1,1.2 1.5,1.5 0.4,-0.3 1,-0.8 1.5,-1.5 -0.5,-0.2 -1,-0.6 -1.3,-1.1 m 6,-4.6 c -0.1,0 -0.2,0.1 -0.3,0.1 0.1,0.1 0.1,0.1 0.2,0.2 0.4,0.5 0.6,1 0.7,1.6 0.8,-0.2 1.5,-0.7 1.9,-0.9 -0.2,-0.4 -0.5,-1.2 -1,-1.9 -0.4,0.4 -0.9,0.7 -1.5,0.9 m -1.8,0.1 c -0.1,0 -0.1,0 0,0 L 16.5,24.3 C 16.4,24.5 16.2,24.8 16,25 l 0.7,0.9 c 0.1,0.2 0.1,0.5 -0.1,0.6 -0.1,0.1 -0.2,0.1 -0.3,0.1 -0.1,0 -0.3,-0.1 -0.3,-0.2 l -0.7,-0.9 c -0.2,0.1 -0.5,0.2 -0.8,0.3 v 2 c 0,0 0,0.5 0.5,1.2 0.9,1.2 2.5,1.4 3.7,0.6 1.2,-0.9 1.4,-2.5 0.6,-3.7 -0.6,-0.9 -1,-1 -1,-1 m -4.4,0.2 c 1.2,0 2.2,-1 2.2,-2.2 0,-1.2 -1,-2.2 -2.2,-2.2 -1.2,0 -2.2,1 -2.2,2.2 0,1.2 1,2.2 2.2,2.2 m 75.100004,-0.2 c 0,0 0,0 0,0 l -1.8,-0.6 c -0.1,0.2 -0.3,0.5 -0.5,0.7 l 0.7,0.9 c 0.1,0.2 0.1,0.5 -0.1,0.6 -0.1,0.1 -0.2,0.1 -0.3,0.1 -0.1,0 -0.3,-0.1 -0.3,-0.2 l -0.7,-0.9 c -0.2,0.1 -0.5,0.2 -0.8,0.3 v 2 c 0,0 0,0.5 0.5,1.2 0.9,1.2 2.5,1.4 3.7,0.6 1.2,-0.9 1.4,-2.5 0.6,-3.7 -0.5,-0.9 -1,-1 -1,-1 m 3.2,-4.4 c -0.2,-0.7 -0.7,-1.2 -1.3,-1.5 -0.6,-0.3 -1.3,-0.4 -2,-0.2 -0.7,0.2 -1.1,0.6 -1.1,0.7 l -1.1,1.6 c 0.2,0.2 0.4,0.4 0.5,0.7 l 1.1,-0.3 c 0.2,-0.1 0.5,0 0.5,0.3 0.1,0.2 -0.1,0.5 -0.3,0.5 l -1.1,0.4 c 0,0.1 0,0.3 0,0.4 0,0.1 0,0.3 0,0.4 l 1.8,0.6 c 0,0 0.5,0.1 1.3,-0.1 1.4,-0.7 2.2,-2.2 1.7,-3.5 m -7.4,8.9 c -0.1,-0.1 -0.1,-0.2 -0.2,-0.2 0,0.1 -0.1,0.2 -0.2,0.2 -0.4,0.5 -0.8,0.9 -1.3,1.1 0.5,0.7 1.1,1.2 1.5,1.5 0.4,-0.3 1,-0.8 1.5,-1.5 -0.5,-0.2 -0.9,-0.6 -1.3,-1.1 m 6.1,-4.6 c -0.1,0 -0.2,0.1 -0.3,0.1 0.1,0.1 0.1,0.1 0.2,0.2 0.4,0.5 0.6,1 0.7,1.6 0.8,-0.2 1.5,-0.7 1.9,-0.9 -0.2,-0.4 -0.5,-1.2 -1,-1.9 -0.5,0.4 -1,0.7 -1.5,0.9 m -7.2,4 c 0.5,-0.6 0.5,-1.1 0.5,-1.2 v -1.9 c -0.3,-0.1 -0.5,-0.1 -0.8,-0.3 l -0.7,0.9 c -0.1,0.1 -0.2,0.2 -0.3,0.2 -0.1,0 -0.2,0 -0.3,-0.1 -0.2,-0.1 -0.2,-0.4 -0.1,-0.6 l 0.7,-0.9 c -0.2,-0.2 -0.4,-0.4 -0.5,-0.7 l -1.8,0.6 c 0,0 -0.5,0.2 -1,0.8 -0.9,1.2 -0.6,2.8 0.6,3.7 1.2,0.9 2.8,0.7 3.7,-0.5 m -1.2,-5.9 c 0,1.2 1,2.2 2.2,2.2 1.2,0 2.2,-1 2.2,-2.2 0,-1.2 -1,-2.2 -2.2,-2.2 -1.2,0 -2.2,1 -2.2,2.2 m -2.5,1 1.8,-0.6 c 0,-0.1 0,-0.3 0,-0.4 0,-0.1 0,-0.3 0,-0.4 l -1.1,-0.3 c -0.2,-0.1 -0.3,-0.3 -0.3,-0.5 0.1,-0.2 0.3,-0.3 0.5,-0.3 l 1.1,0.3 c 0.1,-0.2 0.3,-0.5 0.5,-0.7 l -1.1,-1.6 c 0,0 -0.3,-0.4 -1.1,-0.7 -0.3,-0.1 -0.5,-0.1 -0.8,-0.1 -0.4,0 -0.8,0.1 -1.2,0.3 -0.6,0.3 -1.1,0.9 -1.3,1.5 -0.5,1.4 0.3,2.9 1.7,3.3 0.8,0.3 1.3,0.2 1.3,0.2 m 3.4,-3.5 c 0.2,-0.1 0.5,-0.2 0.8,-0.2 v -1.1 c 0,-0.2 0.2,-0.4 0.4,-0.4 0.2,0 0.4,0.2 0.4,0.4 v 1.1 c 0.3,0 0.5,0.1 0.8,0.2 l 1.1,-1.5 c 0,0 0.3,-0.4 0.3,-1.2 0,-1.5 -1.2,-2.6 -2.6,-2.6 -1.5,0 -2.6,1.2 -2.6,2.6 0,0.8 0.3,1.2 0.3,1.2 z m 4.9,-2.5 c 0.1,0 0.2,-0.1 0.3,-0.1 0.6,-0.2 1.1,-0.2 1.7,-0.1 0,-0.8 -0.2,-1.6 -0.3,-2.1 -0.4,0 -1.3,0.1 -2.1,0.4 0.3,0.5 0.4,1.1 0.4,1.7 0,0 0,0.1 0,0.2 m -11.3,6 c -0.5,0.6 -0.8,1.4 -1,1.9 0.4,0.2 1.1,0.7 1.9,0.9 0.1,-0.6 0.3,-1.1 0.7,-1.6 0.1,-0.1 0.1,-0.2 0.2,-0.2 -0.1,0 -0.2,0 -0.3,-0.1 -0.6,-0.2 -1.1,-0.5 -1.5,-0.9 m 3.7,-6.1 c 0.1,0 0.2,0.1 0.3,0.1 0,-0.1 0,-0.2 0,-0.3 0,-0.6 0.1,-1.2 0.4,-1.7 -0.8,-0.3 -1.6,-0.3 -2.1,-0.3 -0.1,0.4 -0.3,1.3 -0.3,2.1 0.6,-0.1 1.2,-0.1 1.7,0.1"
   id="path8" />
</svg>
