<?xml version="1.0" encoding="UTF-8" standalone="no"?>
<!-- Created with Inkscape (http://www.inkscape.org/) -->

<svg
   xmlns:dc="http://purl.org/dc/elements/1.1/"
   xmlns:cc="http://creativecommons.org/ns#"
   xmlns:rdf="http://www.w3.org/1999/02/22-rdf-syntax-ns#"
   xmlns:svg="http://www.w3.org/2000/svg"
   xmlns="http://www.w3.org/2000/svg"
   xmlns:sodipodi="http://sodipodi.sourceforge.net/DTD/sodipodi-0.dtd"
   xmlns:inkscape="http://www.inkscape.org/namespaces/inkscape"
   width="392.95816"
   height="392.95898"
   version="1.0"
   id="svg4169"
   inkscape:version="0.91 r13725"
   sodipodi:docname="logo.svg">
  <metadata
     id="metadata4181">
    <rdf:RDF>
      <cc:Work
         rdf:about="">
        <dc:format>image/svg+xml</dc:format>
        <dc:type
           rdf:resource="http://purl.org/dc/dcmitype/StillImage" />
      </cc:Work>
    </rdf:RDF>
  </metadata>
  <defs
     id="defs4179" />
  <sodipodi:namedview
     pagecolor="#ffffff"
     bordercolor="#666666"
     borderopacity="1"
     objecttolerance="10"
     gridtolerance="10"
     guidetolerance="10"
     inkscape:pageopacity="0"
     inkscape:pageshadow="2"
     inkscape:window-width="1439"
     inkscape:window-height="800"
     id="namedview4177"
     showgrid="false"
     inkscape:zoom="1.5268769"
     inkscape:cx="196.47908"
     inkscape:cy="196.47949"
     inkscape:window-x="0"
     inkscape:window-y="0"
     inkscape:window-maximized="0"
     inkscape:current-layer="g4171" />
  <g
     transform="translate(17.424402,-329.25543)"
     id="g4171">
    <path
       style="fill:#253571;fill-opacity:1;fill-rule:nonzero;stroke:none;stroke-width:3.5999999;stroke-linecap:butt;stroke-linejoin:miter;stroke-miterlimit:4;stroke-dasharray:none;stroke-dashoffset:0;stroke-opacity:1"
       d="M 544.47223 547.79102 A 196.47467 196.47467 0 1 1  151.52289,547.79102 A 196.47467 196.47467 0 1 1  544.47223 547.79102 z"
       transform="translate(-168.93846,-22.060915)"
       id="path4173" />
    <path
       style="color:#000000;font-style:normal;font-variant:normal;font-weight:normal;font-stretch:normal;font-size:medium;line-height:normal;font-family:sans-serif;text-indent:0;text-align:start;text-decoration:none;text-decoration-line:none;text-decoration-style:solid;text-decoration-color:#000000;letter-spacing:normal;word-spacing:normal;text-transform:none;direction:ltr;block-progression:tb;writing-mode:lr-tb;baseline-shift:baseline;text-anchor:start;white-space:normal;clip-rule:nonzero;display:inline;overflow:visible;visibility:visible;opacity:1;isolation:auto;mix-blend-mode:normal;color-interpolation:sRGB;color-interpolation-filters:linearRGB;solid-color:#000000;solid-opacity:1;fill:#ffffff;fill-opacity:1;fill-rule:evenodd;stroke:none;stroke-width:37.70000076;stroke-linecap:round;stroke-linejoin:round;stroke-miterlimit:4;stroke-dasharray:none;stroke-dashoffset:0;stroke-opacity:1;color-rendering:auto;image-rendering:auto;shape-rendering:auto;text-rendering:auto;enable-background:accumulate"
       d="m 179.32031,421.81836 c -1.00347,-0.002 -1.33036,0.3009 -1.82226,0.32617 -0.98382,0.0505 -1.47165,0.12455 -1.9043,0.18555 -0.8653,0.12199 -1.3827,0.22788 -1.94336,0.3418 -1.12131,0.22782 -2.26086,0.4929 -3.6582,0.83398 -2.79469,0.68217 -6.50353,1.65208 -11.07031,2.91406 -9.13358,2.52397 -21.62604,6.19651 -35.89649,10.78906 -28.540896,9.18511 -64.033529,21.93962 -93.857421,36.85157 a 18.851885,18.851885 0 0 0 -1.113281,33.11718 c 27.364497,16.06177 49.880748,29.07712 72.628902,39.93165 -42.597901,18.95926 -74.40234,45.29492 -74.40234,45.29492 a 18.851885,18.851885 0 1 0 23.642578,29.36718 c 0,0 58.719472,-45.42435 109.568362,-54.1914 a 18.851885,18.851885 0 0 0 2.49609,-36.54492 c -29.51775,-9.35929 -53.28411,-21.08148 -82.910155,-37.85547 18.871872,-7.62663 38.452355,-14.59893 55.496095,-20.08399 13.73738,-4.421 25.80086,-7.96224 34.39062,-10.33593 3.91608,-1.08217 6.86354,-1.84414 9.08789,-2.39649 2.49591,0.6702 5.93883,1.60044 10.25586,2.80274 8.79378,2.44906 20.98579,5.96149 34.84571,10.31836 17.09847,5.37489 36.67041,12.17291 55.49218,19.64648 -28.95723,16.13721 -52.27599,27.27379 -83.35742,38.60937 a 18.851885,18.851885 0 0 0 4.11914,36.41211 c 21.24661,2.65583 49.31739,15.80447 70.96094,28.73047 21.64355,12.92601 36.87891,24.94141 36.87891,24.94141 a 18.851885,18.851885 0 1 0 23.35351,-29.5957 c 0,0 -17.08902,-13.49106 -40.90234,-27.7129 -10.02492,-5.9871 -21.28381,-12.17857 -33.24219,-17.6875 22.96525,-10.88013 45.43334,-23.22408 73.52539,-39.71289 A 18.851885,18.851885 0 0 0 328.86914,474 c -29.94331,-14.97166 -65.68323,-27.45212 -94.41016,-36.48242 -14.36346,-4.51515 -26.94392,-8.13802 -36.03515,-10.66992 -4.54562,-1.26596 -8.22204,-2.25875 -10.78711,-2.94727 -1.28254,-0.34426 -2.29202,-0.61448 -2.95508,-0.79297 -0.33153,-0.0892 -0.58323,-0.15766 -0.68359,-0.18554 -0.10036,-0.0279 -1.22913,-0.50693 1.19922,0.40234 -3.194,-1.19598 -4.87348,-1.50371 -5.87696,-1.50586 z m -5.41406,37.42773 c 0.29986,0.0833 0.60345,0.16572 0.97461,0.26563 0.38499,0.10363 1.0274,0.275 1.54687,0.41406 -0.62364,-0.10695 -1.50271,-0.35885 -2.52148,-0.67969 z"
       id="path4175"
       inkscape:connector-curvature="0" />
  </g>
</svg>
