<?xml version="1.0" encoding="UTF-8" standalone="no"?>
<!-- Created with Inkscape (http://www.inkscape.org/) -->

<svg
   xmlns:dc="http://purl.org/dc/elements/1.1/"
   xmlns:cc="http://creativecommons.org/ns#"
   xmlns:rdf="http://www.w3.org/1999/02/22-rdf-syntax-ns#"
   xmlns:svg="http://www.w3.org/2000/svg"
   xmlns="http://www.w3.org/2000/svg"
   xmlns:sodipodi="http://sodipodi.sourceforge.net/DTD/sodipodi-0.dtd"
   xmlns:inkscape="http://www.inkscape.org/namespaces/inkscape"
   width="392.95816"
   height="392.95898"
   version="1.0"
   id="svg4169"
   inkscape:version="0.91 r13725"
   sodipodi:docname="logo-white.svg">
  <metadata
     id="metadata4181">
    <rdf:RDF>
      <cc:Work
         rdf:about="">
        <dc:format>image/svg+xml</dc:format>
        <dc:type
           rdf:resource="http://purl.org/dc/dcmitype/StillImage" />
      </cc:Work>
    </rdf:RDF>
  </metadata>
  <defs
     id="defs4179" />
  <sodipodi:namedview
     pagecolor="#ffffff"
     bordercolor="#666666"
     borderopacity="1"
     objecttolerance="10"
     gridtolerance="10"
     guidetolerance="10"
     inkscape:pageopacity="0"
     inkscape:pageshadow="2"
     inkscape:window-width="1439"
     inkscape:window-height="800"
     id="namedview4177"
     showgrid="false"
     inkscape:zoom="1.5268769"
     inkscape:cx="101.51399"
     inkscape:cy="196.47949"
     inkscape:window-x="0"
     inkscape:window-y="23"
     inkscape:window-maximized="0"
     inkscape:current-layer="g4171" />
  <g
     transform="translate(17.424402,-329.25543)"
     id="g4171">
    <path
       style="fill:#ffffff;fill-opacity:1;fill-rule:nonzero;stroke:none;stroke-width:3.5999999;stroke-linecap:butt;stroke-linejoin:miter;stroke-miterlimit:4;stroke-dasharray:none;stroke-dashoffset:0;stroke-opacity:1"
       d="M 202.2207 0.083984375 A 196.47467 196.47467 0 0 0 0.009765625 196.47461 A 196.47467 196.47467 0 0 0 392.95898 196.47461 A 196.47467 196.47467 0 0 0 202.2207 0.083984375 z M 196.74414 92.5625 C 197.58623 92.564304 198.96421 92.817238 201.25391 93.59375 C 201.09915 93.528728 201.37244 93.625949 201.72656 93.748047 C 201.84912 93.781373 201.92162 93.802098 202.10547 93.851562 C 202.76853 94.030053 203.77801 94.300271 205.06055 94.644531 C 207.62562 95.333051 211.30204 96.325837 215.84766 97.591797 C 224.93889 100.1237 237.51935 103.74657 251.88281 108.26172 C 280.60974 117.29202 316.34966 129.77248 346.29297 144.74414 A 18.851885 18.851885 0 0 1 347.40625 177.85938 C 319.3142 194.34819 296.84611 206.69214 273.88086 217.57227 C 285.83924 223.0812 297.09813 229.27267 307.12305 235.25977 C 330.93637 249.48161 348.02539 262.97266 348.02539 262.97266 A 18.851885 18.851885 0 1 1 324.67188 292.56836 C 324.67188 292.56836 309.43652 280.55296 287.79297 267.62695 C 266.14942 254.70095 238.07864 241.55231 216.83203 238.89648 A 18.851885 18.851885 0 0 1 212.71289 202.48438 C 243.79432 191.14879 267.11308 180.01221 296.07031 163.875 C 277.24854 156.40143 257.6766 149.60341 240.57812 144.22852 C 226.71821 139.87165 214.5262 136.35922 205.73242 133.91016 C 201.41539 132.70786 197.97247 131.77762 195.47656 131.10742 C 193.25221 131.65977 190.30475 132.42174 186.38867 133.50391 C 177.79891 135.8776 165.73543 139.41884 151.99805 143.83984 C 134.95431 149.3249 115.37383 156.2972 96.501953 163.92383 C 126.128 180.69782 149.89436 192.42001 179.41211 201.7793 A 18.851885 18.851885 0 0 1 176.91602 238.32422 C 126.06713 247.09127 67.347656 292.51562 67.347656 292.51562 A 18.851885 18.851885 0 1 1 43.705078 263.14844 C 43.705078 263.14844 75.509521 236.81278 118.10742 217.85352 C 95.359268 206.99899 72.843013 193.98364 45.478516 177.92188 A 18.851885 18.851885 0 0 1 46.591797 144.80469 C 76.415689 129.89274 111.90832 117.13824 140.44922 107.95312 C 154.71967 103.36057 167.21212 99.688033 176.3457 97.164062 C 180.91248 95.902083 184.62133 94.93217 187.41602 94.25 C 188.81336 93.90892 189.95291 93.643836 191.07422 93.416016 C 191.63488 93.302096 192.15228 93.196209 193.01758 93.074219 C 193.45023 93.013219 193.93805 92.939172 194.92188 92.888672 C 195.41378 92.863402 195.74067 92.5605 196.74414 92.5625 z M 201.72656 93.748047 C 201.68872 93.737757 201.63985 93.725126 201.60938 93.716797 C 201.94805 93.834966 202.24092 93.926004 202.62109 94.068359 C 201.91879 93.805389 201.94474 93.823271 201.72656 93.748047 z M 201.60938 93.716797 C 201.49043 93.675295 201.36797 93.632432 201.25391 93.59375 C 201.33348 93.627183 201.39765 93.659282 201.42188 93.666016 C 201.4494 93.673662 201.56056 93.703456 201.60938 93.716797 z M 191.33008 129.99023 C 192.34885 130.31107 193.22792 130.56297 193.85156 130.66992 C 193.33209 130.53086 192.68968 130.35949 192.30469 130.25586 C 191.93353 130.15595 191.62994 130.07353 191.33008 129.99023 z "
       transform="translate(-17.424402,329.25543)"
       id="path4173" />
  </g>
</svg>
