<?xml version="1.0" encoding="UTF-8" standalone="no"?>
<!-- Created with Inkscape (http://www.inkscape.org/) -->

<svg
        xmlns:dc="http://purl.org/dc/elements/1.1/"
        xmlns:cc="http://creativecommons.org/ns#"
        xmlns:rdf="http://www.w3.org/1999/02/22-rdf-syntax-ns#"
        xmlns:svg="http://www.w3.org/2000/svg"
        xmlns="http://www.w3.org/2000/svg"
        xmlns:xlink="http://www.w3.org/1999/xlink"
        xmlns:sodipodi="http://sodipodi.sourceforge.net/DTD/sodipodi-0.dtd"
        xmlns:inkscape="http://www.inkscape.org/namespaces/inkscape"
        width="1687.709"
        height="392.94934"
        id="svg2"
        sodipodi:version="0.32"
        inkscape:version="0.91 r13725"
        sodipodi:docname="logo-white.svg"
        inkscape:output_extension="org.inkscape.output.svg.inkscape"
        inkscape:export-filename="/home/rpb1g08/sr-letterhead.png"
        inkscape:export-xdpi="299.97681"
        inkscape:export-ydpi="299.97681"
        version="1.0">
  <defs
          id="defs4">
    <inkscape:perspective
            sodipodi:type="inkscape:persp3d"
            inkscape:vp_x="0 : 196.47949 : 1"
            inkscape:vp_y="0 : 1000 : 0"
            inkscape:vp_z="392.95816 : 196.47949 : 1"
            inkscape:persp3d-origin="196.47908 : 130.98633 : 1"
            id="perspective30" />
    <linearGradient
            id="linearGradient3307">
      <stop
              id="stop3309"
              offset="0"
              style="stop-color:#ffffff;stop-opacity:1;" />
      <stop
              style="stop-color:#ffffff;stop-opacity:0.51485151;"
              offset="0.36160421"
              id="stop3313" />
      <stop
              id="stop3328"
              offset="0.7708323"
              style="stop-color:#253571;stop-opacity:0.35643566;" />
      <stop
              id="stop3324"
              offset="1"
              style="stop-color:#253571;stop-opacity:1;" />
    </linearGradient>
    <linearGradient
            id="linearGradient3247">
      <stop
              style="stop-color:#ffffff;stop-opacity:1;"
              offset="0"
              id="stop3249" />
      <stop
              style="stop-color:#253571;stop-opacity:1;"
              offset="1"
              id="stop3251" />
    </linearGradient>
    <linearGradient
            id="linearGradient3239">
      <stop
              style="stop-color:#ffffff;stop-opacity:1;"
              offset="0"
              id="stop3241" />
      <stop
              style="stop-color:#000000;stop-opacity:0;"
              offset="1"
              id="stop3243" />
    </linearGradient>
    <radialGradient
            inkscape:collect="always"
            xlink:href="#linearGradient3247"
            id="radialGradient3253"
            cx="285.65286"
            cy="467.98898"
            fx="285.65286"
            fy="467.98898"
            r="198.27467"
            gradientUnits="userSpaceOnUse"
            gradientTransform="matrix(0.7792208,0.7915819,-0.7599434,0.7480763,418.71133,-108.22014)" />
    <radialGradient
            inkscape:collect="always"
            xlink:href="#linearGradient3247"
            id="radialGradient3288"
            gradientUnits="userSpaceOnUse"
            gradientTransform="matrix(0.7792208,0.7915819,-0.7599434,0.7480763,418.71133,-108.22014)"
            cx="285.65286"
            cy="467.98898"
            fx="285.65286"
            fy="467.98898"
            r="198.27467" />
    <radialGradient
            inkscape:collect="always"
            xlink:href="#linearGradient3247"
            id="radialGradient3297"
            gradientUnits="userSpaceOnUse"
            gradientTransform="matrix(0.7792208,0.7915819,-0.7599434,0.7480763,418.71133,-108.22014)"
            cx="285.65286"
            cy="467.98898"
            fx="285.65286"
            fy="467.98898"
            r="198.27467" />
    <radialGradient
            inkscape:collect="always"
            xlink:href="#linearGradient3307"
            id="radialGradient3305"
            gradientUnits="userSpaceOnUse"
            gradientTransform="matrix(0.4603364,1.6362682,-1.6486307,0.4638141,935.51442,-211.36002)"
            cx="279.54501"
            cy="485.01904"
            fx="279.54501"
            fy="485.01904"
            r="198.27467" />
    <inkscape:perspective
            id="perspective2846"
            inkscape:persp3d-origin="0.5 : 0.33333333 : 1"
            inkscape:vp_z="1 : 0.5 : 1"
            inkscape:vp_y="0 : 1000 : 0"
            inkscape:vp_x="0 : 0.5 : 1"
            sodipodi:type="inkscape:persp3d" />
  </defs>
  <sodipodi:namedview
          id="base"
          pagecolor="#ffffff"
          bordercolor="#666666"
          borderopacity="1.0"
          gridtolerance="10000"
          guidetolerance="10"
          objecttolerance="10"
          inkscape:pageopacity="0.0"
          inkscape:pageshadow="2"
          inkscape:zoom="0.5"
          inkscape:cx="498.99811"
          inkscape:cy="216.19862"
          inkscape:document-units="px"
          inkscape:current-layer="g2863"
          inkscape:window-width="1440"
          inkscape:window-height="802"
          inkscape:window-x="0"
          inkscape:window-y="1"
          showguides="false"
          inkscape:guide-bbox="true"
          showgrid="false"
          inkscape:window-maximized="1"
          inkscape:snap-global="true"
          inkscape:snap-object-midpoints="true">
    <sodipodi:guide
            orientation="horizontal"
            position="-16.669855,611.41895"
            id="guide3330" />
    <sodipodi:guide
            orientation="vertical"
            position="161.81229,-0.0096209961"
            id="guide3332" />
    <sodipodi:guide
            orientation="horizontal"
            position="-16.669855,630.16895"
            id="guide3334" />
    <sodipodi:guide
            orientation="horizontal"
            position="-16.669855,592.57967"
            id="guide3336" />
  </sodipodi:namedview>
  <metadata
          id="metadata7">
    <rdf:RDF>
      <cc:Work
              rdf:about="">
        <dc:format>image/svg+xml</dc:format>
        <dc:type
                rdf:resource="http://purl.org/dc/dcmitype/StillImage" />
        <dc:title></dc:title>
      </cc:Work>
    </rdf:RDF>
  </metadata>
  <g
          inkscape:label="Layer 1"
          inkscape:groupmode="layer"
          id="layer1"
          transform="translate(0.75454682,-329.25543)"
          style="opacity:1">
    <g
            id="g2863"
            transform="translate(16.661025,0)"
            style="">
      <path
              style="fill:#ffffff;fill-opacity:1;fill-rule:nonzero;stroke:none"
              d="M 196.47461 0 A 196.47467 196.47467 0 0 0 0 196.47461 A 196.47467 196.47467 0 0 0 196.47461 392.94922 A 196.47467 196.47467 0 0 0 392.94922 196.47461 A 196.47467 196.47467 0 0 0 196.47461 0 z M 196.73633 92.5625 C 197.57793 92.564303 198.95492 92.816372 201.24219 93.591797 C 201.08959 93.527509 201.36643 93.627981 201.71484 93.748047 C 201.83786 93.781503 201.91205 93.801623 202.09766 93.851562 C 202.76072 94.030053 203.77019 94.300271 205.05273 94.644531 C 207.6178 95.333051 211.29422 96.325837 215.83984 97.591797 C 224.93107 100.1237 237.51154 103.74657 251.875 108.26172 C 280.60193 117.29202 316.34185 129.77248 346.28516 144.74414 A 18.851885 18.851885 0 0 1 347.39844 177.85938 C 319.30639 194.34819 296.8383 206.69214 273.87305 217.57227 C 285.83143 223.0812 297.09031 229.27267 307.11523 235.25977 C 330.92855 249.48161 348.01758 262.97266 348.01758 262.97266 A 18.851885 18.851885 0 1 1 324.66406 292.56836 C 324.66406 292.56836 309.42871 280.55296 287.78516 267.62695 C 266.14161 254.70095 238.07083 241.55231 216.82422 238.89648 A 18.851885 18.851885 0 0 1 212.70508 202.48438 C 243.78651 191.14879 267.10527 180.01221 296.0625 163.875 C 277.24073 156.40143 257.66878 149.60341 240.57031 144.22852 C 226.71039 139.87165 214.51839 136.35922 205.72461 133.91016 C 201.40758 132.70786 197.96466 131.77762 195.46875 131.10742 C 193.2444 131.65977 190.29694 132.42174 186.38086 133.50391 C 177.7911 135.8776 165.72761 139.41884 151.99023 143.83984 C 134.94649 149.3249 115.36601 156.2972 96.494141 163.92383 C 126.12019 180.69782 149.88655 192.42001 179.4043 201.7793 A 18.851885 18.851885 0 0 1 176.9082 238.32422 C 126.05931 247.09127 67.339844 292.51562 67.339844 292.51562 A 18.851885 18.851885 0 1 1 43.697266 263.14844 C 43.697266 263.14844 75.501708 236.81278 118.09961 217.85352 C 95.351455 206.99899 72.8352 193.98364 45.470703 177.92188 A 18.851885 18.851885 0 0 1 46.583984 144.80469 C 76.407876 129.89274 111.90051 117.13824 140.44141 107.95312 C 154.71186 103.36057 167.20431 99.688033 176.33789 97.164062 C 180.90467 95.902083 184.61351 94.93217 187.4082 94.25 C 188.80554 93.90892 189.9451 93.643836 191.06641 93.416016 C 191.62707 93.302096 192.14447 93.196209 193.00977 93.074219 C 193.44242 93.013219 193.93024 92.939172 194.91406 92.888672 C 195.40596 92.863402 195.73286 92.5605 196.73633 92.5625 z M 201.71484 93.748047 C 201.67839 93.738133 201.63109 93.724867 201.60156 93.716797 C 201.94024 93.834966 202.23311 93.926004 202.61328 94.068359 C 201.90905 93.804666 201.93259 93.823084 201.71484 93.748047 z M 201.60156 93.716797 C 201.48125 93.674817 201.35751 93.630892 201.24219 93.591797 C 201.32307 93.625872 201.38938 93.659153 201.41406 93.666016 C 201.44159 93.673662 201.55275 93.703456 201.60156 93.716797 z M 191.32227 129.99023 C 192.34104 130.31107 193.22011 130.56297 193.84375 130.66992 C 193.32428 130.53086 192.68186 130.35949 192.29688 130.25586 C 191.92572 130.15595 191.62213 130.07353 191.32227 129.99023 z "
              transform="translate(-17.415572,329.25543)"
              id="path2266" />
    </g>
    <g
            style="font-style:normal;font-variant:normal;font-weight:normal;font-stretch:normal;font-size:144px;line-height:89.99999762%;font-family:Eurostile;-inkscape-font-specification:Eurostile;text-align:start;writing-mode:lr-tb;text-anchor:start;fill:#ffffff;fill-opacity:1;stroke:none"
            id="text2834">
      <path
              d="m 514.91544,503.75745 -10.75782,0 q 0,-11.60157 -3.86718,-14.69532 -3.86719,-3.16406 -18.21094,-3.16406 -17.01563,0 -21.9375,3.02344 -4.92188,2.95312 -4.92188,13.28906 0,11.60156 3.86719,14.13281 3.86719,2.53125 22.99219,3.44532 22.42969,0.98437 28.47656,5.69531 6.11719,4.71094 6.11719,21.09375 0,17.71875 -7.03125,22.92187 -6.96094,5.20313 -30.86719,5.20313 -20.74219,0 -27.63281,-5.20313 -6.82031,-5.27343 -6.82031,-21.16406 l -0.0703,-4.28906 10.75782,0 0,2.39062 q 0,12.86719 3.9375,16.03125 3.9375,3.09375 20.17968,3.09375 18.63282,0 22.92188,-3.09375 4.28906,-3.16406 4.28906,-16.73437 0,-8.78906 -2.95312,-11.67188 -2.88282,-2.95312 -12.16407,-3.51562 l -11.25,-0.5625 -10.6875,-0.5625 q -24.39843,-1.6875 -24.39843,-25.3125 0,-16.38281 7.10156,-21.86719 7.10156,-5.48437 28.33594,-5.48437 21.51562,0 28.05468,5.13281 6.53907,5.0625 6.53907,21.86719 z"
              style="fill:#ffffff"
              id="path4352" />
      <path
              d="m 563.29044,487.79651 0,85.92187 -10.82813,0 0,-85.92187 -31.28906,0 0,-10.05469 73.125,0 0,10.05469 -31.00781,0 z"
              style="fill:#ffffff"
              id="path4354" />
      <path
              d="m 669.32169,477.74182 10.82812,0 0,67.21875 q 0,18.28125 -7.38281,24.04688 -7.3125,5.69531 -30.79688,5.69531 -22.00781,0 -29.95312,-5.48438 -7.875,-5.55468 -7.875,-21.02343 l 0,-3.23438 0,-67.21875 10.82812,0 0,67.21875 q 0,13.64063 4.42969,17.15625 4.42969,3.44531 21.79688,3.44531 18.84375,0 23.48437,-3.375 4.64063,-3.44531 4.64063,-17.22656 l 0,-67.21875 z"
              style="fill:#ffffff"
              id="path4356" />
      <path
              d="m 698.29044,573.71838 0,-95.97656 44.4375,0 q 20.60156,0 27.91406,9.07031 7.3125,9.07032 7.3125,34.73438 0,31.21875 -6.53906,41.69531 -6.46875,10.47656 -25.94532,10.47656 l -47.17968,0 z m 10.82812,-9.14062 31.28906,0 q 17.22657,0 22.21875,-6.89063 4.99219,-6.89062 4.99219,-30.72656 0,-26.15625 -4.35937,-33.11719 -4.28907,-6.96093 -20.67188,-6.96093 l -33.46875,0 0,77.69531 z"
              style="fill:#ffffff"
              id="path4358" />
      <path
              d="m 799.18887,486.88245 0,32.69531 48.72657,0 0,9.14062 -48.72657,0 0,35.85938 50.83594,0 0,9.14062 -61.66406,0 0,-95.97656 61.66406,0 0,9.14063 -50.83594,0 z"
              style="fill:#ffffff"
              id="path4360" />
      <path
              d="m 946.21231,477.74182 0,95.97656 -17.78906,0 -40.21875,-65.32031 -6.53906,-10.75781 -3.23438,-5.34375 -3.23437,-5.34375 -0.28125,0 0.0703,3.58594 0.0703,3.65625 0,7.17187 0,72.35156 -10.82812,0 0,-95.97656 17.71875,0 35.08593,57.23438 9.14063,15.04687 4.57031,7.45313 4.5,7.52343 0.28125,0 -0.0703,-3.58593 -0.0703,-3.65625 0,-7.17188 0,-72.84375 10.82812,0 z"
              style="fill:#ffffff"
              id="path4362" />
      <path
              d="m 998.10294,487.79651 0,85.92187 -10.82813,0 0,-85.92187 -31.28906,0 0,-10.05469 73.12495,0 0,10.05469 -31.00776,0 z"
              style="fill:#ffffff"
              id="path4364" />
      <path
              d="m 1074.8842,573.71838 0,-95.97656 45.7031,0 q 15.4688,0 21.7969,6.11719 6.3281,6.11719 6.3281,21.23437 0,13.28907 -3.4453,18.5625 -3.4453,5.20313 -13.1484,6.75 l 0,0.21094 q 15.2578,1.125 15.2578,18.5625 l 0,24.53906 -10.8282,0 0,-22.07812 q 0,-16.80469 -14.5546,-16.80469 l -3.586,0 -32.6953,0 0,38.88281 -10.8281,0 z m 10.8281,-48.02343 31.2891,0 q 12.375,0 16.875,-3.72657 4.5,-3.79687 4.5,-14.20312 0,-13.00781 -3.375,-16.94531 -3.3047,-3.9375 -14.2735,-3.9375 l -35.0156,0 0,38.8125 z"
              style="fill:#ffffff"
              id="path4366" />
      <path
              d="m 1199.6889,476.75745 q 27.2109,0 34.0312,7.94531 6.8203,7.94531 6.8203,39.72656 0,34.24219 -6.539,42.25781 -6.5391,8.01563 -34.3125,8.01563 -27.6328,0 -34.3125,-7.94531 -6.6094,-7.94532 -6.6094,-41.0625 l 0,-6.75 0.1406,-9.07032 q 0,-19.125 8.5781,-26.08593 8.6485,-7.03125 32.2032,-7.03125 z m -0.07,9.14062 q -22.7813,0 -26.6485,5.0625 -3.8672,5.0625 -3.8672,34.73438 0,29.74218 3.8672,34.80468 3.8672,5.0625 26.6485,5.0625 22.8515,0 26.7187,-5.0625 3.8672,-5.0625 3.8672,-34.80468 l 0,-6.25782 -0.07,-9.07031 q 0,-15.89062 -5.3438,-20.17969 -5.3437,-4.28906 -25.1718,-4.28906 z"
              style="fill:#ffffff"
              id="path4368" />
      <path
              d="m 1252.9154,573.71838 0,-95.97656 42.4688,0 q 17.6484,0 23.0625,4.85156 5.4844,4.85157 5.4844,20.53125 0,15.96094 -12.3047,20.17969 l 0,0.21094 q 15.2578,3.65625 15.2578,22.57031 0,15.25781 -6.0469,21.44531 -5.9766,6.1875 -20.8828,6.1875 l -47.0391,0 z m 10.8282,-53.78906 28.4765,0 q 13.5703,0 17.4375,-3.23437 3.9375,-3.23438 3.9375,-14.41407 0,-9.70312 -3.4453,-12.51562 -3.375,-2.88281 -14.9766,-2.88281 l -31.4296,0 0,33.04687 z m 0,44.64844 22.9921,0 9.7735,-0.0703 q 12.375,0 16.1719,-3.16407 3.8671,-3.23437 3.8671,-13.57031 0,-12.86719 -3.8671,-15.75 -3.8672,-2.95312 -21.0235,-2.95312 l -27.914,0 0,35.50781 z"
              style="fill:#ffffff"
              id="path4370" />
      <path
              d="m 1376.8764,476.75745 q 27.2109,0 34.0312,7.94531 6.8203,7.94531 6.8203,39.72656 0,34.24219 -6.539,42.25781 -6.5391,8.01563 -34.3125,8.01563 -27.6328,0 -34.3125,-7.94531 -6.6094,-7.94532 -6.6094,-41.0625 l 0,-6.75 0.1406,-9.07032 q 0,-19.125 8.5781,-26.08593 8.6485,-7.03125 32.2032,-7.03125 z m -0.07,9.14062 q -22.7813,0 -26.6485,5.0625 -3.8672,5.0625 -3.8672,34.73438 0,29.74218 3.8672,34.80468 3.8672,5.0625 26.6485,5.0625 22.8515,0 26.7187,-5.0625 3.8672,-5.0625 3.8672,-34.80468 l 0,-6.25782 -0.07,-9.07031 q 0,-15.89062 -5.3438,-20.17969 -5.3437,-4.28906 -25.1718,-4.28906 z"
              style="fill:#ffffff"
              id="path4372" />
      <path
              d="m 1463.5717,487.79651 0,85.92187 -10.8281,0 0,-85.92187 -31.2891,0 0,-10.05469 73.125,0 0,10.05469 -31.0078,0 z"
              style="fill:#ffffff"
              id="path4374" />
      <path
              d="m 1515.1811,477.74182 0,95.97656 -10.8282,0 0,-95.97656 10.8282,0 z"
              style="fill:#ffffff"
              id="path4376" />
      <path
              d="m 1596.5326,541.65588 10.7578,0 0,3.65625 q 0,19.61719 -6.6797,24.53907 -6.6796,4.85156 -33.6093,4.85156 -24.1172,0 -30.6563,-8.57813 -6.539,-8.64843 -6.539,-40.57031 0,-24.96094 1.4765,-31.35937 1.4766,-6.46875 8.4375,-11.53125 8.1563,-5.90625 35.2266,-5.90625 18.3515,0 24.6797,5.69531 6.3984,5.69531 6.3984,22.00781 l 0.07,2.60156 -10.7578,0 -0.07,-2.95312 q 0,-11.60156 -3.7969,-14.90625 -3.7265,-3.30469 -16.9453,-3.30469 -23.2031,0 -28.3359,3.86719 -5.1328,3.86719 -5.1328,21.44531 0,40.42969 3.4453,47.39063 3.4453,6.96093 23.5547,6.96093 19.125,0 23.8359,-3.02343 4.7812,-3.02344 4.7812,-15.1875 l -0.1406,-5.69532 z"
              style="fill:#ffffff"
              id="path4378" />
      <path
              d="m 1685.4779,503.75745 -10.7578,0 q 0,-11.60157 -3.8672,-14.69532 -3.8672,-3.16406 -18.2109,-3.16406 -17.0156,0 -21.9375,3.02344 -4.9219,2.95312 -4.9219,13.28906 0,11.60156 3.8672,14.13281 3.8672,2.53125 22.9922,3.44532 22.4297,0.98437 28.4766,5.69531 6.1171,4.71094 6.1171,21.09375 0,17.71875 -7.0312,22.92187 -6.9609,5.20313 -30.8672,5.20313 -20.7422,0 -27.6328,-5.20313 -6.8203,-5.27343 -6.8203,-21.16406 l -0.07,-4.28906 10.7578,0 0,2.39062 q 0,12.86719 3.9375,16.03125 3.9375,3.09375 20.1797,3.09375 18.6328,0 22.9218,-3.09375 4.2891,-3.16406 4.2891,-16.73437 0,-8.78906 -2.9531,-11.67188 -2.8828,-2.95312 -12.1641,-3.51562 l -11.25,-0.5625 -10.6875,-0.5625 q -24.3984,-1.6875 -24.3984,-25.3125 0,-16.38281 7.1015,-21.86719 7.1016,-5.48437 28.336,-5.48437 21.5156,0 28.0547,5.13281 6.539,5.0625 6.539,21.86719 z"
              style="fill:#ffffff"
              id="path4380" />
    </g>
  </g>
  <g
          inkscape:groupmode="layer"
          id="layer2"
          inkscape:label="2"
          transform="translate(0.75454682,-329.25543)" />
</svg>
